<svg id="svg" version="1.1" xmlns="http://www.w3.org/2000/svg" xmlns:xlink="http://www.w3.org/1999/xlink" width="400" height="400" viewBox="0, 0, 400,400"><g id="svgg"><path id="path0" d="M191.400 67.001 C 191.180 67.097,188.750 67.365,186.000 67.596 C 165.192 69.341,142.829 76.383,126.059 86.471 C 124.662 87.312,123.357 88.000,123.159 88.000 C 122.962 88.000,122.800 88.150,122.800 88.332 C 122.800 88.515,122.305 88.914,121.700 89.218 C 120.604 89.769,115.981 92.802,115.600 93.219 C 115.490 93.340,114.770 93.871,114.000 94.400 C 113.230 94.929,112.510 95.465,112.400 95.591 C 112.290 95.717,111.390 96.439,110.400 97.195 C 107.148 99.677,100.253 105.854,97.385 108.855 C 93.104 113.332,83.200 125.709,83.200 126.580 C 83.200 126.670,82.482 127.824,81.605 129.144 C 79.735 131.960,74.959 141.071,73.399 144.800 C 72.800 146.230,72.154 147.760,71.962 148.200 C 71.364 149.569,68.710 157.727,68.383 159.200 C 68.212 159.970,67.803 161.680,67.475 163.000 C 63.598 178.587,63.598 197.413,67.475 213.000 C 67.803 214.320,68.212 216.030,68.383 216.800 C 68.845 218.881,71.511 226.749,72.414 228.696 C 72.846 229.628,73.200 230.555,73.200 230.754 C 73.200 232.934,83.551 250.717,88.128 256.400 C 88.394 256.730,89.239 257.806,90.006 258.792 C 92.844 262.440,99.069 268.917,106.161 275.600 C 110.737 279.913,112.984 283.272,115.255 289.200 C 115.980 291.092,115.988 300.768,115.266 303.200 C 113.498 309.158,110.706 315.395,108.014 319.400 C 101.713 328.773,103.599 333.200,113.893 333.200 C 132.535 333.200,154.552 325.320,174.243 311.600 L 177.400 309.400 196.063 309.147 C 206.328 309.007,214.932 308.766,215.183 308.611 C 215.434 308.455,217.116 308.163,218.920 307.962 C 236.959 305.950,256.197 299.626,272.534 290.337 C 276.261 288.218,284.957 282.560,286.829 281.037 C 287.394 280.577,288.467 279.750,289.213 279.200 C 294.644 275.193,304.860 265.141,309.742 259.000 C 310.791 257.680,311.898 256.295,312.202 255.921 C 315.223 252.216,322.295 240.510,324.640 235.337 C 325.422 233.611,326.407 231.439,326.829 230.508 C 327.629 228.744,331.249 217.777,331.947 215.000 C 336.209 198.056,336.369 179.659,332.402 162.900 C 332.181 161.965,331.845 160.525,331.656 159.700 C 327.274 140.586,312.829 117.675,295.400 102.197 C 293.420 100.439,291.710 98.902,291.600 98.782 C 291.386 98.550,284.036 93.064,282.387 91.907 C 280.762 90.766,275.187 87.200,275.029 87.200 C 274.948 87.200,273.738 86.511,272.341 85.669 C 267.183 82.563,257.969 78.406,248.200 74.779 C 240.120 71.779,225.853 68.712,214.600 67.556 C 210.459 67.131,192.106 66.691,191.400 67.001 M212.800 78.595 C 221.782 79.501,227.011 80.400,234.400 82.307 C 236.490 82.847,238.697 83.379,239.305 83.490 C 239.913 83.601,240.508 83.851,240.629 84.046 C 240.749 84.241,241.276 84.400,241.800 84.400 C 242.324 84.400,242.864 84.580,243.000 84.800 C 243.136 85.020,243.651 85.200,244.144 85.200 C 244.637 85.200,245.211 85.343,245.420 85.518 C 245.629 85.693,246.520 86.065,247.400 86.345 C 249.229 86.926,249.244 86.931,255.100 89.443 C 275.629 98.249,294.804 114.005,306.737 131.873 C 309.006 135.271,309.576 136.207,311.807 140.200 C 313.507 143.242,315.989 148.416,316.797 150.600 C 316.960 151.040,317.290 151.850,317.531 152.400 C 319.009 155.771,321.295 163.754,322.344 169.200 C 325.384 184.994,324.600 201.861,320.171 215.964 C 319.853 216.974,319.403 218.430,319.170 219.200 C 318.730 220.658,318.157 222.108,317.553 223.295 C 317.359 223.677,317.200 224.174,317.200 224.399 C 317.200 225.232,312.784 234.446,310.778 237.800 C 310.120 238.900,309.282 240.385,308.917 241.100 C 308.551 241.815,308.105 242.400,307.926 242.400 C 307.747 242.400,307.600 242.581,307.600 242.803 C 307.600 243.025,306.404 244.870,304.942 246.903 C 292.421 264.319,272.748 279.719,252.900 287.641 C 250.475 288.609,249.934 288.828,249.100 289.181 C 247.908 289.686,239.083 292.551,236.800 293.174 C 235.810 293.445,234.370 293.838,233.600 294.048 C 230.167 294.985,225.275 295.912,219.000 296.814 C 213.189 297.650,198.063 298.379,186.326 298.389 L 173.651 298.400 171.228 300.100 C 163.961 305.198,161.465 306.845,158.200 308.699 C 154.420 310.845,144.706 315.600,144.103 315.600 C 143.909 315.600,143.005 315.960,142.094 316.400 C 141.184 316.840,140.106 317.200,139.699 317.200 C 139.293 317.200,138.789 317.343,138.580 317.518 C 137.874 318.110,131.165 319.947,126.800 320.743 C 119.669 322.045,119.739 322.115,122.317 316.285 C 124.108 312.236,125.118 309.308,126.349 304.600 C 129.597 292.171,124.889 278.081,114.051 267.800 C 101.726 256.108,95.057 248.217,89.830 239.139 C 88.753 237.267,83.745 227.182,83.157 225.700 C 82.303 223.546,81.884 222.556,81.553 221.905 C 81.359 221.523,81.200 220.936,81.200 220.600 C 81.200 220.264,81.025 219.677,80.811 219.295 C 80.471 218.687,79.640 215.874,78.418 211.200 C 76.828 205.117,75.619 195.150,75.608 188.027 C 75.592 178.000,77.899 164.057,80.807 156.600 C 80.979 156.160,81.336 155.170,81.600 154.400 C 82.136 152.840,82.444 152.049,83.312 150.000 C 84.903 146.246,85.311 145.325,85.792 144.400 C 87.775 140.592,89.195 137.971,89.817 136.967 C 95.259 128.189,99.946 122.167,106.415 115.639 C 112.083 109.920,117.432 105.450,123.800 101.111 C 130.721 96.396,141.154 90.663,146.200 88.802 C 147.232 88.422,148.635 87.842,150.453 87.044 C 151.936 86.394,158.434 84.178,160.600 83.584 C 164.552 82.501,168.460 81.517,170.200 81.167 C 171.300 80.946,173.010 80.599,174.000 80.395 C 184.670 78.203,201.277 77.432,212.800 78.595 " stroke="none" fill="#f6f6f6" fill-rule="evenodd"></path><path id="path1" d="M0.000 200.000 L 0.000 400.000 200.000 400.000 L 400.000 400.000 400.000 200.000 L 400.000 0.000 200.000 0.000 L 0.000 0.000 0.000 200.000 M209.800 66.440 C 213.540 66.658,217.950 67.014,219.600 67.230 C 221.250 67.445,223.500 67.716,224.600 67.830 C 225.700 67.945,226.960 68.199,227.400 68.394 C 228.150 68.728,229.059 68.901,233.000 69.456 C 233.880 69.580,234.771 69.844,234.980 70.041 C 235.189 70.238,235.856 70.400,236.461 70.400 C 237.067 70.400,237.976 70.561,238.481 70.758 C 238.987 70.955,240.210 71.333,241.200 71.597 C 242.190 71.862,243.313 72.240,243.695 72.439 C 244.077 72.638,244.831 72.800,245.371 72.800 C 245.911 72.800,246.442 72.944,246.551 73.121 C 246.660 73.297,247.672 73.693,248.800 74.000 C 249.928 74.307,250.940 74.703,251.049 74.879 C 251.158 75.056,251.569 75.200,251.962 75.200 C 252.355 75.200,253.200 75.450,253.839 75.756 C 254.477 76.062,255.630 76.579,256.400 76.904 C 260.769 78.751,264.857 80.627,266.725 81.644 C 267.893 82.280,269.031 82.800,269.253 82.800 C 269.474 82.800,270.441 83.340,271.400 84.000 C 272.359 84.660,273.259 85.200,273.400 85.200 C 273.541 85.200,274.441 85.740,275.400 86.400 C 276.359 87.060,277.337 87.600,277.572 87.600 C 277.807 87.600,278.000 87.780,278.000 88.000 C 278.000 88.220,278.190 88.400,278.422 88.400 C 278.931 88.400,283.744 91.607,283.933 92.072 C 284.007 92.253,284.288 92.400,284.558 92.400 C 284.828 92.400,285.398 92.715,285.825 93.100 C 286.252 93.485,287.260 94.292,288.066 94.894 C 288.871 95.496,289.771 96.227,290.065 96.520 C 290.359 96.812,290.899 97.220,291.264 97.426 C 293.103 98.462,306.800 111.477,306.800 112.188 C 306.800 112.325,307.238 112.874,307.773 113.409 C 308.308 113.944,309.251 115.061,309.868 115.891 C 310.486 116.721,311.276 117.670,311.624 118.000 C 311.972 118.330,313.040 119.770,313.998 121.200 C 314.956 122.630,315.868 123.890,316.025 124.000 C 316.181 124.110,316.645 124.775,317.055 125.478 C 317.465 126.181,318.728 128.251,319.861 130.078 C 321.716 133.067,326.697 142.667,327.708 145.200 C 327.927 145.750,328.284 146.650,328.500 147.200 C 328.716 147.750,329.052 148.513,329.247 148.895 C 329.441 149.277,329.600 149.952,329.600 150.395 C 329.600 150.838,329.780 151.200,330.000 151.200 C 330.220 151.200,330.400 151.729,330.400 152.376 C 330.400 153.023,330.580 153.664,330.800 153.800 C 331.020 153.936,331.200 154.476,331.200 155.000 C 331.200 155.524,331.380 156.064,331.600 156.200 C 331.820 156.336,332.000 157.056,332.000 157.800 C 332.000 158.544,332.180 159.264,332.400 159.400 C 332.620 159.536,332.800 160.267,332.800 161.024 C 332.800 161.781,332.980 162.400,333.200 162.400 C 333.420 162.400,333.600 163.210,333.600 164.200 C 333.600 165.190,333.763 166.000,333.963 166.000 C 334.163 166.000,334.426 166.945,334.548 168.100 C 334.671 169.255,334.985 171.730,335.247 173.600 C 335.847 177.882,335.853 197.788,335.256 202.400 C 335.014 204.270,334.640 206.790,334.426 208.000 C 334.211 209.210,333.926 210.830,333.791 211.600 C 333.656 212.370,333.400 213.360,333.222 213.800 C 333.044 214.240,332.683 215.590,332.421 216.800 C 332.159 218.010,331.797 219.360,331.618 219.800 C 331.438 220.240,331.067 221.410,330.793 222.400 C 330.520 223.390,329.959 224.963,329.548 225.896 C 329.136 226.828,328.800 227.776,328.800 228.001 C 328.800 228.226,328.640 228.723,328.444 229.105 C 328.248 229.487,327.729 230.610,327.292 231.600 C 323.600 239.951,316.986 251.776,315.211 253.200 C 315.074 253.310,314.529 254.030,314.000 254.800 C 313.471 255.570,312.931 256.290,312.800 256.400 C 312.669 256.510,312.129 257.230,311.600 258.000 C 311.071 258.770,310.357 259.670,310.015 260.000 C 309.672 260.330,308.859 261.314,308.209 262.187 C 305.487 265.841,293.620 277.193,289.600 279.988 C 288.830 280.523,288.110 281.069,288.000 281.200 C 287.890 281.331,287.170 281.871,286.400 282.400 C 285.630 282.929,284.910 283.472,284.800 283.607 C 284.365 284.142,280.830 286.400,280.428 286.400 C 280.193 286.400,280.000 286.580,280.000 286.800 C 280.000 287.020,279.730 287.200,279.400 287.200 C 279.070 287.200,278.800 287.380,278.800 287.600 C 278.800 287.820,278.530 288.000,278.200 288.000 C 277.870 288.000,277.600 288.159,277.600 288.353 C 277.600 288.548,277.285 288.810,276.900 288.936 C 276.515 289.062,275.390 289.653,274.400 290.249 C 267.707 294.279,261.722 297.192,254.400 299.985 C 252.530 300.698,250.640 301.432,250.200 301.615 C 249.760 301.797,248.680 302.164,247.800 302.429 C 246.920 302.694,245.840 303.045,245.400 303.210 C 244.960 303.374,243.790 303.730,242.800 304.000 C 241.810 304.270,240.640 304.638,240.200 304.818 C 239.459 305.121,238.895 305.242,235.296 305.863 C 234.579 305.987,233.894 306.249,233.773 306.444 C 233.652 306.640,232.764 306.800,231.800 306.800 C 230.836 306.800,229.936 306.980,229.800 307.200 C 229.664 307.420,228.789 307.600,227.856 307.600 C 226.923 307.600,225.989 307.761,225.780 307.958 C 225.571 308.155,224.140 308.434,222.600 308.578 C 221.060 308.722,218.270 309.026,216.400 309.254 C 214.530 309.482,205.041 309.788,195.312 309.935 C 179.560 310.171,177.539 310.274,176.840 310.873 C 175.812 311.753,168.070 316.945,166.119 318.062 C 159.415 321.900,150.484 326.400,149.571 326.400 C 149.196 326.400,148.682 326.619,146.905 327.538 C 146.413 327.792,145.659 328.000,145.229 328.000 C 144.799 328.000,144.336 328.180,144.200 328.400 C 144.064 328.620,143.543 328.800,143.043 328.800 C 142.543 328.800,142.010 328.923,141.859 329.074 C 141.420 329.513,138.681 330.387,137.724 330.394 C 137.242 330.397,136.736 330.580,136.600 330.800 C 136.464 331.020,135.744 331.200,135.000 331.200 C 134.256 331.200,133.548 331.361,133.426 331.558 C 133.305 331.755,132.439 332.029,131.503 332.168 C 130.566 332.306,128.630 332.600,127.200 332.820 C 122.300 333.576,114.599 334.023,110.848 333.770 L 107.097 333.518 105.379 331.800 C 102.387 328.808,102.593 325.886,106.166 320.619 C 107.953 317.985,109.030 316.163,109.430 315.100 C 109.575 314.715,109.852 314.400,110.047 314.400 C 110.241 314.400,110.400 314.147,110.400 313.838 C 110.400 313.353,110.952 312.080,112.450 309.105 C 112.643 308.723,112.800 308.138,112.800 307.805 C 112.800 307.472,112.980 307.200,113.200 307.200 C 113.420 307.200,113.600 306.671,113.600 306.024 C 113.600 305.377,113.780 304.736,114.000 304.600 C 114.220 304.464,114.400 303.679,114.400 302.856 C 114.400 302.033,114.596 301.164,114.837 300.923 C 115.565 300.195,114.945 290.489,114.023 288.200 C 113.153 286.037,111.728 283.319,111.101 282.625 C 110.715 282.198,110.400 281.676,110.400 281.464 C 110.400 281.099,106.839 277.498,100.589 271.542 C 96.941 268.064,92.865 263.747,91.162 261.554 C 90.413 260.590,89.521 259.531,89.181 259.200 C 88.841 258.870,88.129 257.970,87.600 257.200 C 87.071 256.430,86.540 255.710,86.419 255.600 C 85.707 254.950,83.600 251.979,83.600 251.623 C 83.600 251.391,83.420 251.200,83.200 251.200 C 82.980 251.200,82.800 250.996,82.800 250.748 C 82.800 250.499,82.170 249.419,81.400 248.347 C 80.630 247.275,80.000 246.291,80.000 246.161 C 80.000 246.030,79.667 245.446,79.259 244.862 C 78.520 243.803,73.781 234.518,73.205 233.000 C 73.038 232.560,72.496 231.300,72.000 230.200 C 70.764 227.458,70.525 226.844,69.977 225.000 C 69.716 224.120,69.344 223.087,69.151 222.705 C 68.958 222.323,68.800 221.659,68.800 221.229 C 68.800 220.799,68.620 220.336,68.400 220.200 C 68.180 220.064,68.000 219.524,68.000 219.000 C 68.000 218.476,67.839 217.948,67.642 217.826 C 67.445 217.705,67.186 216.929,67.065 216.103 C 66.647 213.241,66.344 211.796,65.995 211.000 C 65.803 210.560,65.540 209.390,65.411 208.400 C 65.282 207.410,64.979 205.340,64.738 203.800 C 64.123 199.875,64.129 176.214,64.745 172.400 C 65.012 170.750,65.331 168.590,65.454 167.600 C 65.577 166.610,65.840 165.629,66.039 165.420 C 66.237 165.211,66.400 164.367,66.400 163.544 C 66.400 162.721,66.580 161.936,66.800 161.800 C 67.020 161.664,67.200 161.081,67.200 160.505 C 67.200 159.434,67.820 157.151,68.449 155.905 C 68.642 155.523,68.800 154.859,68.800 154.429 C 68.800 153.999,68.980 153.536,69.200 153.400 C 69.420 153.264,69.600 152.749,69.600 152.256 C 69.600 151.763,69.743 151.189,69.918 150.980 C 70.093 150.771,70.465 149.880,70.745 149.000 C 72.032 144.946,75.898 136.844,79.113 131.462 C 81.760 127.032,85.233 121.843,85.670 121.667 C 85.851 121.593,86.001 121.323,86.002 121.067 C 86.003 120.810,86.504 120.060,87.115 119.400 C 87.726 118.740,88.667 117.570,89.206 116.800 C 89.746 116.030,90.730 114.832,91.393 114.139 C 92.057 113.445,93.317 112.005,94.193 110.939 C 96.826 107.733,105.725 99.515,110.200 96.157 C 111.520 95.166,112.903 94.108,113.273 93.805 C 114.617 92.705,122.382 87.600,122.711 87.600 C 122.897 87.600,123.398 87.285,123.825 86.900 C 124.252 86.515,125.321 85.822,126.200 85.361 C 127.080 84.899,128.610 84.067,129.600 83.510 C 133.280 81.442,141.222 77.600,141.817 77.600 C 141.905 77.600,142.939 77.160,144.115 76.622 C 145.291 76.084,147.682 75.180,149.427 74.613 C 151.172 74.046,152.913 73.406,153.295 73.191 C 153.677 72.976,154.431 72.800,154.971 72.800 C 155.511 72.800,156.064 72.620,156.200 72.400 C 156.336 72.180,156.876 72.000,157.400 72.000 C 157.924 72.000,158.452 71.839,158.574 71.642 C 158.695 71.445,159.471 71.190,160.297 71.074 C 162.393 70.782,164.060 70.400,165.000 69.997 C 165.440 69.809,166.430 69.544,167.200 69.409 C 167.970 69.274,169.545 68.992,170.700 68.782 C 171.855 68.572,173.835 68.218,175.100 67.995 C 184.573 66.327,197.764 65.736,209.800 66.440 M187.961 79.372 C 187.840 79.494,185.953 79.775,183.770 79.997 C 176.906 80.695,169.262 82.006,167.400 82.803 C 166.960 82.991,165.970 83.256,165.200 83.392 C 164.430 83.527,163.213 83.739,162.496 83.863 C 161.779 83.987,161.094 84.249,160.973 84.444 C 160.852 84.640,160.234 84.800,159.600 84.800 C 158.966 84.800,158.336 84.980,158.200 85.200 C 158.064 85.420,157.601 85.600,157.171 85.600 C 156.741 85.600,156.032 85.780,155.595 86.000 C 155.158 86.220,154.442 86.580,154.005 86.800 C 153.568 87.020,152.936 87.200,152.600 87.200 C 152.264 87.200,151.677 87.359,151.295 87.553 C 150.651 87.881,149.796 88.243,147.500 89.159 C 142.128 91.304,130.803 97.368,126.387 100.463 C 125.025 101.418,123.435 102.504,122.855 102.875 C 122.275 103.247,121.620 103.702,121.400 103.886 C 121.180 104.071,120.370 104.661,119.600 105.198 C 118.830 105.734,117.959 106.407,117.665 106.693 C 117.371 106.978,116.471 107.697,115.665 108.290 C 110.853 111.830,98.955 124.853,94.368 131.600 C 93.395 133.030,92.510 134.290,92.400 134.400 C 92.290 134.510,91.975 135.005,91.700 135.500 C 91.425 135.995,90.975 136.805,90.700 137.300 C 90.425 137.795,90.108 138.290,89.995 138.400 C 89.882 138.510,89.350 139.500,88.812 140.600 C 88.275 141.700,87.513 143.078,87.118 143.662 C 86.723 144.246,86.400 145.011,86.400 145.362 C 86.400 145.713,86.220 146.000,86.000 146.000 C 85.780 146.000,85.600 146.272,85.600 146.605 C 85.600 146.938,85.420 147.568,85.200 148.005 C 84.980 148.442,84.620 149.158,84.400 149.595 C 84.180 150.032,84.000 150.662,84.000 150.995 C 84.000 151.328,83.820 151.600,83.600 151.600 C 83.380 151.600,83.200 152.039,83.200 152.576 C 83.200 153.113,83.020 153.664,82.800 153.800 C 82.580 153.936,82.400 154.451,82.400 154.944 C 82.400 155.437,82.251 156.011,82.070 156.220 C 81.888 156.429,81.510 157.410,81.231 158.400 C 80.951 159.390,80.560 160.513,80.361 160.895 C 80.162 161.277,80.000 162.121,80.000 162.771 C 80.000 163.421,79.840 164.052,79.644 164.173 C 79.449 164.294,79.186 164.979,79.061 165.696 C 78.936 166.413,78.647 167.990,78.418 169.200 C 77.239 175.450,77.013 178.433,77.009 187.800 C 77.004 198.433,77.516 203.707,79.204 210.400 C 79.454 211.390,79.755 212.787,79.873 213.504 C 79.992 214.221,80.249 214.906,80.444 215.027 C 80.640 215.148,80.800 215.766,80.800 216.400 C 80.800 217.034,80.980 217.664,81.200 217.800 C 81.420 217.936,81.600 218.399,81.600 218.829 C 81.600 219.259,81.808 220.013,82.062 220.505 C 83.058 222.431,83.200 222.817,83.200 223.595 C 83.200 224.038,83.380 224.400,83.600 224.400 C 83.820 224.400,84.000 224.839,84.000 225.376 C 84.000 225.913,84.180 226.464,84.400 226.600 C 84.620 226.736,84.800 227.197,84.800 227.624 C 84.800 228.051,84.980 228.400,85.200 228.400 C 85.420 228.400,85.600 228.760,85.600 229.200 C 85.600 229.640,85.780 230.000,86.000 230.000 C 86.220 230.000,86.400 230.360,86.400 230.800 C 86.400 231.240,86.580 231.600,86.800 231.600 C 87.020 231.600,87.200 231.960,87.200 232.400 C 87.200 232.840,87.380 233.200,87.600 233.200 C 87.820 233.200,88.000 233.560,88.000 234.000 C 88.000 234.440,88.135 234.801,88.300 234.803 C 88.465 234.805,88.787 235.210,89.017 235.703 C 89.838 237.471,91.409 240.210,91.900 240.729 C 92.175 241.019,92.400 241.411,92.400 241.600 C 92.400 241.789,92.626 242.181,92.902 242.471 C 93.178 242.762,94.260 244.260,95.307 245.800 C 98.461 250.439,103.109 255.816,108.575 261.150 C 111.422 263.928,115.097 267.550,116.742 269.200 C 119.748 272.216,123.485 277.451,124.650 280.280 C 124.994 281.116,125.501 282.340,125.777 283.000 C 126.675 285.155,127.200 287.037,127.200 288.105 C 127.200 288.681,127.380 289.264,127.600 289.400 C 128.148 289.739,128.116 301.088,127.559 303.494 C 126.248 309.166,125.178 312.390,123.155 316.755 C 121.527 320.267,121.306 321.029,122.045 320.572 C 122.289 320.421,123.684 320.146,125.145 319.960 C 126.605 319.775,128.610 319.423,129.600 319.179 C 130.590 318.935,132.076 318.640,132.903 318.525 C 133.729 318.410,134.505 318.155,134.626 317.958 C 134.748 317.761,135.276 317.600,135.800 317.600 C 136.324 317.600,136.864 317.420,137.000 317.200 C 137.136 316.980,137.777 316.800,138.424 316.800 C 139.071 316.800,139.600 316.620,139.600 316.400 C 139.600 316.180,139.962 316.000,140.405 316.000 C 140.848 316.000,141.523 315.841,141.905 315.647 C 142.287 315.452,143.050 315.115,143.600 314.897 C 149.979 312.371,164.636 304.326,166.400 302.382 C 166.510 302.261,167.230 301.725,168.000 301.192 C 168.770 300.658,169.739 299.911,170.154 299.531 C 172.450 297.427,172.523 297.419,192.000 297.129 C 209.114 296.875,214.242 296.603,221.000 295.595 C 222.540 295.365,224.610 295.075,225.600 294.950 C 226.590 294.825,227.571 294.560,227.780 294.361 C 227.989 294.163,228.833 294.000,229.656 294.000 C 230.479 294.000,231.264 293.820,231.400 293.600 C 231.536 293.380,232.256 293.200,233.000 293.200 C 233.744 293.200,234.464 293.020,234.600 292.800 C 234.736 292.580,235.456 292.400,236.200 292.400 C 236.944 292.400,237.664 292.220,237.800 292.000 C 237.936 291.780,238.566 291.600,239.200 291.600 C 239.834 291.600,240.464 291.420,240.600 291.200 C 240.736 290.980,241.276 290.800,241.800 290.800 C 242.324 290.800,242.864 290.620,243.000 290.400 C 243.136 290.180,243.676 290.000,244.200 290.000 C 244.724 290.000,245.264 289.820,245.400 289.600 C 245.536 289.380,246.087 289.200,246.624 289.200 C 247.161 289.200,247.600 289.020,247.600 288.800 C 247.600 288.580,247.962 288.400,248.405 288.400 C 248.848 288.400,249.568 288.220,250.005 288.000 C 250.442 287.780,251.158 287.420,251.595 287.200 C 252.032 286.980,252.662 286.800,252.995 286.800 C 253.328 286.800,253.600 286.620,253.600 286.400 C 253.600 286.180,253.872 286.000,254.205 286.000 C 254.538 286.000,255.123 285.843,255.505 285.650 C 255.887 285.458,256.920 284.950,257.800 284.521 C 261.811 282.568,267.741 279.255,271.400 276.923 C 273.600 275.521,275.760 274.155,276.200 273.887 C 276.640 273.619,277.090 273.301,277.200 273.181 C 277.310 273.060,278.030 272.529,278.800 272.000 C 279.570 271.471,280.290 270.931,280.400 270.800 C 280.510 270.669,281.230 270.124,282.000 269.589 C 282.770 269.055,283.784 268.238,284.252 267.774 C 284.721 267.311,285.969 266.227,287.025 265.366 C 291.397 261.801,297.980 254.634,302.732 248.266 C 304.564 245.810,306.319 243.483,306.632 243.095 C 306.944 242.708,307.200 242.247,307.200 242.071 C 307.200 241.895,307.515 241.401,307.900 240.973 C 308.681 240.105,310.385 236.971,313.319 231.000 C 314.400 228.800,315.446 226.687,315.642 226.305 C 315.839 225.923,316.000 225.248,316.000 224.805 C 316.000 224.362,316.180 224.000,316.400 224.000 C 316.620 224.000,316.800 223.651,316.800 223.224 C 316.800 222.797,316.980 222.336,317.200 222.200 C 317.420 222.064,317.600 221.601,317.600 221.171 C 317.600 220.741,317.762 220.077,317.961 219.695 C 318.160 219.313,318.538 218.190,318.803 217.200 C 319.067 216.210,319.445 214.987,319.642 214.481 C 319.839 213.976,320.000 213.131,320.000 212.605 C 320.000 212.078,320.180 211.536,320.400 211.400 C 320.620 211.264,320.800 210.544,320.800 209.800 C 320.800 209.056,320.957 208.350,321.150 208.231 C 321.342 208.112,321.604 207.066,321.732 205.907 C 321.860 204.748,322.194 202.180,322.476 200.200 C 323.031 196.297,323.147 181.476,322.656 177.200 C 322.215 173.357,320.771 165.504,320.358 164.705 C 320.161 164.323,320.000 163.479,320.000 162.829 C 320.000 162.179,319.820 161.536,319.600 161.400 C 319.380 161.264,319.200 160.634,319.200 160.000 C 319.200 159.366,319.020 158.736,318.800 158.600 C 318.580 158.464,318.400 157.913,318.400 157.376 C 318.400 156.839,318.220 156.400,318.000 156.400 C 317.780 156.400,317.600 156.038,317.600 155.595 C 317.600 155.152,317.420 154.432,317.200 153.995 C 316.980 153.558,316.620 152.842,316.400 152.405 C 316.180 151.968,316.000 151.344,316.000 151.018 C 316.000 150.691,315.640 149.783,315.200 149.000 C 314.760 148.217,314.400 147.311,314.400 146.988 C 314.400 146.665,314.220 146.400,314.000 146.400 C 313.780 146.400,313.600 146.040,313.600 145.600 C 313.600 145.160,313.420 144.800,313.200 144.800 C 312.980 144.800,312.800 144.440,312.800 144.000 C 312.800 143.560,312.620 143.200,312.400 143.200 C 312.180 143.200,312.000 142.855,312.000 142.433 C 312.000 142.012,311.865 141.607,311.700 141.533 C 311.535 141.460,310.789 140.230,310.042 138.800 C 309.295 137.370,308.567 136.110,308.424 136.000 C 308.281 135.890,307.749 135.083,307.241 134.207 C 305.849 131.807,300.339 124.400,299.945 124.400 C 299.755 124.400,299.600 124.148,299.600 123.840 C 299.600 123.176,287.226 110.582,285.200 109.184 C 284.430 108.652,283.418 107.853,282.950 107.409 C 281.401 105.934,276.871 102.593,274.755 101.364 C 274.343 101.125,273.689 100.663,273.303 100.337 C 272.916 100.012,271.250 98.966,269.600 98.012 C 267.950 97.058,265.970 95.892,265.200 95.420 C 263.119 94.143,256.117 90.746,255.329 90.631 C 254.952 90.575,254.574 90.321,254.488 90.065 C 254.403 89.809,253.909 89.600,253.390 89.600 C 252.872 89.600,252.336 89.420,252.200 89.200 C 252.064 88.980,251.603 88.800,251.176 88.800 C 250.749 88.800,250.400 88.620,250.400 88.400 C 250.400 88.180,250.038 88.000,249.595 88.000 C 249.152 88.000,248.432 87.820,247.995 87.600 C 247.558 87.380,246.842 87.020,246.405 86.800 C 245.968 86.580,245.336 86.400,245.000 86.400 C 244.664 86.400,244.032 86.220,243.595 86.000 C 243.158 85.780,242.442 85.420,242.005 85.200 C 241.568 84.980,240.769 84.800,240.229 84.800 C 239.689 84.800,239.136 84.620,239.000 84.400 C 238.864 84.180,238.144 84.000,237.400 84.000 C 236.656 84.000,235.936 83.820,235.800 83.600 C 235.664 83.380,234.944 83.200,234.200 83.200 C 233.456 83.200,232.736 83.020,232.600 82.800 C 232.464 82.580,231.744 82.400,231.000 82.400 C 230.256 82.400,229.536 82.220,229.400 82.000 C 229.264 81.780,228.389 81.600,227.456 81.600 C 226.523 81.600,225.589 81.440,225.380 81.243 C 225.171 81.047,223.830 80.768,222.400 80.623 C 220.970 80.479,218.450 80.177,216.800 79.953 C 213.566 79.515,188.327 79.006,187.961 79.372 " stroke="none" fill="#040404" fill-rule="evenodd"></path><path id="path2" d="M193.300 78.676 C 193.685 78.776,194.315 78.776,194.700 78.676 C 195.085 78.575,194.770 78.493,194.000 78.493 C 193.230 78.493,192.915 78.575,193.300 78.676 M203.100 78.689 C 203.815 78.778,204.985 78.778,205.700 78.689 C 206.415 78.601,205.830 78.528,204.400 78.528 C 202.970 78.528,202.385 78.601,203.100 78.689 M211.700 79.076 C 212.085 79.176,212.715 79.176,213.100 79.076 C 213.485 78.975,213.170 78.893,212.400 78.893 C 211.630 78.893,211.315 78.975,211.700 79.076 M98.791 106.700 L 95.400 110.200 98.900 106.809 C 102.151 103.659,102.582 103.200,102.291 103.200 C 102.231 103.200,100.656 104.775,98.791 106.700 M286.000 109.325 C 286.000 109.394,286.585 109.979,287.300 110.625 L 288.600 111.800 287.425 110.500 C 286.330 109.288,286.000 109.016,286.000 109.325 M290.400 113.310 C 290.400 113.371,291.795 114.766,293.500 116.410 L 296.600 119.400 293.610 116.300 C 290.833 113.421,290.400 113.017,290.400 113.310 M64.128 182.400 C 64.128 183.830,64.201 184.415,64.289 183.700 C 64.378 182.985,64.378 181.815,64.289 181.100 C 64.201 180.385,64.128 180.970,64.128 182.400 M335.765 188.400 C 335.765 192.250,335.825 193.825,335.898 191.900 C 335.971 189.975,335.971 186.825,335.898 184.900 C 335.825 182.975,335.765 184.550,335.765 188.400 M76.157 187.600 C 76.157 190.570,76.220 191.785,76.297 190.300 C 76.374 188.815,76.374 186.385,76.297 184.900 C 76.220 183.415,76.157 184.630,76.157 187.600 M64.120 194.400 C 64.120 195.610,64.195 196.105,64.287 195.500 C 64.378 194.895,64.378 193.905,64.287 193.300 C 64.195 192.695,64.120 193.190,64.120 194.400 M294.181 258.900 L 292.600 260.600 294.300 259.019 C 295.881 257.548,296.184 257.200,295.881 257.200 C 295.816 257.200,295.051 257.965,294.181 258.900 M290.400 262.600 C 289.428 263.590,288.723 264.400,288.833 264.400 C 288.943 264.400,289.828 263.590,290.800 262.600 C 291.772 261.610,292.477 260.800,292.367 260.800 C 292.257 260.800,291.372 261.610,290.400 262.600 M96.600 267.200 C 97.459 268.080,98.252 268.800,98.362 268.800 C 98.472 268.800,97.859 268.080,97.000 267.200 C 96.141 266.320,95.348 265.600,95.238 265.600 C 95.128 265.600,95.741 266.320,96.600 267.200 M302.000 268.200 C 301.028 269.190,300.323 270.000,300.433 270.000 C 300.543 270.000,301.428 269.190,302.400 268.200 C 303.372 267.210,304.077 266.400,303.967 266.400 C 303.857 266.400,302.972 267.210,302.000 268.200 M100.600 271.200 C 101.683 272.300,102.660 273.200,102.770 273.200 C 102.880 273.200,102.083 272.300,101.000 271.200 C 99.917 270.100,98.940 269.200,98.830 269.200 C 98.720 269.200,99.517 270.100,100.600 271.200 M107.200 277.325 C 107.200 277.394,107.785 277.979,108.500 278.625 L 109.800 279.800 108.625 278.500 C 107.530 277.288,107.200 277.016,107.200 277.325 M207.700 297.476 C 208.085 297.576,208.715 297.576,209.100 297.476 C 209.485 297.375,209.170 297.293,208.400 297.293 C 207.630 297.293,207.315 297.375,207.700 297.476 M115.293 298.800 C 115.293 299.570,115.375 299.885,115.476 299.500 C 115.576 299.115,115.576 298.485,115.476 298.100 C 115.375 297.715,115.293 298.030,115.293 298.800 M184.300 309.899 C 188.095 309.965,194.305 309.965,198.100 309.899 C 201.895 309.834,198.790 309.780,191.200 309.780 C 183.610 309.780,180.505 309.834,184.300 309.899 M117.905 333.483 C 118.402 333.579,119.122 333.575,119.505 333.475 C 119.887 333.375,119.480 333.296,118.600 333.301 C 117.720 333.305,117.407 333.387,117.905 333.483 " stroke="none" fill="#565656" fill-rule="evenodd"></path><path id="path3" d="M186.400 67.200 C 184.784 67.451,184.743 67.482,186.000 67.500 C 186.770 67.512,188.390 67.384,189.600 67.217 C 191.771 66.917,191.776 66.913,190.000 66.916 C 189.010 66.918,187.390 67.046,186.400 67.200 M210.400 67.220 C 211.390 67.397,212.920 67.530,213.800 67.517 C 215.359 67.494,215.348 67.485,213.400 67.182 C 210.536 66.735,207.869 66.770,210.400 67.220 M179.200 68.000 C 177.843 68.286,177.837 68.295,179.000 68.307 C 179.660 68.315,180.650 68.176,181.200 68.000 C 182.512 67.580,181.196 67.580,179.200 68.000 M218.600 68.000 C 219.260 68.168,220.340 68.306,221.000 68.307 C 222.009 68.308,221.945 68.255,220.600 67.977 C 218.574 67.558,216.937 67.577,218.600 68.000 M173.800 68.800 L 172.600 69.105 173.800 69.125 C 174.460 69.135,175.360 68.989,175.800 68.800 L 176.600 68.456 175.800 68.475 C 175.360 68.486,174.460 68.632,173.800 68.800 M224.000 68.780 C 224.999 69.120,227.482 69.332,227.167 69.051 C 227.075 68.969,226.100 68.799,225.000 68.672 C 223.651 68.516,223.326 68.551,224.000 68.780 M169.800 69.600 C 168.711 69.877,168.693 69.907,169.600 69.925 C 170.150 69.935,170.960 69.789,171.400 69.600 C 172.386 69.176,171.466 69.176,169.800 69.600 M228.600 69.600 C 229.040 69.789,229.760 69.938,230.200 69.932 C 230.843 69.923,230.804 69.857,230.000 69.600 C 228.632 69.162,227.581 69.162,228.600 69.600 M166.000 70.400 C 165.196 70.657,165.157 70.723,165.800 70.732 C 166.240 70.738,166.960 70.589,167.400 70.400 C 168.419 69.962,167.368 69.962,166.000 70.400 M232.600 70.400 C 233.040 70.589,233.670 70.744,234.000 70.744 C 234.378 70.744,234.304 70.617,233.800 70.400 C 233.360 70.211,232.730 70.056,232.400 70.056 C 232.022 70.056,232.096 70.183,232.600 70.400 M162.800 71.200 C 162.267 71.545,162.267 71.588,162.800 71.588 C 163.130 71.588,163.670 71.413,164.000 71.200 C 164.533 70.855,164.533 70.812,164.000 70.812 C 163.670 70.812,163.130 70.987,162.800 71.200 M235.800 71.200 C 236.240 71.389,236.870 71.544,237.200 71.544 C 237.578 71.544,237.504 71.417,237.000 71.200 C 236.560 71.011,235.930 70.856,235.600 70.856 C 235.222 70.856,235.296 70.983,235.800 71.200 M239.000 72.000 C 239.440 72.189,240.070 72.344,240.400 72.344 C 240.778 72.344,240.704 72.217,240.200 72.000 C 239.760 71.811,239.130 71.656,238.800 71.656 C 238.422 71.656,238.496 71.783,239.000 72.000 M144.500 77.034 C 143.785 77.346,143.200 77.694,143.200 77.807 C 143.200 78.015,146.006 76.927,146.346 76.587 C 146.686 76.247,145.820 76.457,144.500 77.034 M256.000 77.766 C 256.550 78.060,257.450 78.412,258.000 78.549 C 258.550 78.686,258.280 78.452,257.400 78.029 C 255.590 77.158,254.468 76.948,256.000 77.766 M189.200 78.411 C 187.990 78.566,189.610 78.602,192.800 78.492 C 195.990 78.382,198.675 78.226,198.767 78.146 C 199.044 77.903,191.555 78.111,189.200 78.411 M201.233 78.146 C 201.325 78.226,204.010 78.385,207.200 78.498 C 210.755 78.625,212.071 78.585,210.600 78.396 C 208.130 78.078,200.936 77.886,201.233 78.146 M139.200 79.400 C 138.650 79.714,138.380 79.972,138.600 79.972 C 138.820 79.972,139.450 79.714,140.000 79.400 C 140.550 79.086,140.820 78.828,140.600 78.828 C 140.380 78.828,139.750 79.086,139.200 79.400 M181.400 79.200 C 179.634 79.649,181.645 79.669,183.800 79.223 L 185.400 78.892 184.000 78.893 C 183.230 78.894,182.060 79.032,181.400 79.200 M214.833 78.950 C 214.925 79.032,216.080 79.200,217.400 79.323 C 218.978 79.470,219.389 79.435,218.600 79.220 C 217.366 78.885,214.536 78.682,214.833 78.950 M260.800 79.800 C 261.790 80.330,262.780 80.764,263.000 80.764 C 263.220 80.764,262.590 80.330,261.600 79.800 C 260.610 79.270,259.620 78.836,259.400 78.836 C 259.180 78.836,259.810 79.270,260.800 79.800 M176.000 80.000 L 175.000 80.320 176.000 80.320 C 176.550 80.320,177.450 80.176,178.000 80.000 L 179.000 79.680 178.000 79.680 C 177.450 79.680,176.550 79.824,176.000 80.000 M221.800 80.000 C 223.492 80.431,224.944 80.431,223.600 80.000 C 223.050 79.824,222.150 79.683,221.600 79.687 C 220.702 79.694,220.722 79.726,221.800 80.000 M172.000 80.800 C 171.205 81.314,172.204 81.314,173.400 80.800 L 174.200 80.456 173.400 80.434 C 172.960 80.422,172.330 80.587,172.000 80.800 M226.400 80.800 C 226.950 80.976,227.760 81.126,228.200 81.132 L 229.000 81.144 228.200 80.800 C 227.760 80.611,226.950 80.462,226.400 80.468 L 225.400 80.480 226.400 80.800 M131.887 82.866 C 130.174 83.768,128.833 84.567,128.907 84.640 C 128.980 84.713,130.561 83.974,132.420 82.998 C 134.279 82.022,135.620 81.224,135.400 81.224 C 135.180 81.225,133.599 81.963,131.887 82.866 M168.200 81.600 C 167.696 81.817,167.622 81.944,168.000 81.944 C 168.330 81.944,168.960 81.789,169.400 81.600 C 169.904 81.383,169.978 81.256,169.600 81.256 C 169.270 81.256,168.640 81.411,168.200 81.600 M230.400 81.600 C 231.768 82.038,232.819 82.038,231.800 81.600 C 231.360 81.411,230.640 81.262,230.200 81.268 C 229.557 81.277,229.596 81.343,230.400 81.600 M264.433 81.357 C 264.883 81.781,267.713 83.220,267.842 83.091 C 267.924 83.010,267.255 82.551,266.357 82.072 C 264.870 81.277,264.010 80.958,264.433 81.357 M165.000 82.400 C 163.981 82.838,165.032 82.838,166.400 82.400 C 167.204 82.143,167.243 82.077,166.600 82.068 C 166.160 82.062,165.440 82.211,165.000 82.400 M233.800 82.400 C 234.240 82.589,234.870 82.744,235.200 82.744 C 235.578 82.744,235.504 82.617,235.000 82.400 C 234.560 82.211,233.930 82.056,233.600 82.056 C 233.222 82.056,233.296 82.183,233.800 82.400 M162.000 83.218 C 161.562 83.515,161.724 83.552,162.600 83.356 C 164.071 83.027,164.390 82.798,163.367 82.806 C 162.945 82.809,162.330 82.995,162.000 83.218 M236.033 82.944 C 236.125 83.023,236.740 83.208,237.400 83.356 C 238.276 83.552,238.438 83.515,238.000 83.218 C 237.460 82.853,235.632 82.598,236.033 82.944 M268.400 83.397 C 268.400 83.464,269.165 83.904,270.100 84.375 C 271.667 85.163,271.722 85.168,270.800 84.436 C 269.909 83.729,268.400 83.076,268.400 83.397 M239.400 84.000 C 240.501 84.473,240.892 84.473,240.600 84.000 C 240.464 83.780,239.958 83.613,239.476 83.628 C 238.631 83.655,238.629 83.669,239.400 84.000 M273.600 86.364 C 274.150 86.814,274.780 87.183,275.000 87.185 C 275.428 87.188,274.705 86.634,273.400 85.960 C 272.869 85.685,272.936 85.821,273.600 86.364 M124.200 87.200 C 123.540 87.637,123.180 87.992,123.400 87.988 C 123.801 87.982,125.976 86.423,125.600 86.412 C 125.490 86.408,124.860 86.763,124.200 87.200 M277.600 88.733 C 278.743 89.679,281.600 91.344,281.600 91.065 C 281.600 90.963,280.999 90.525,280.265 90.092 C 279.531 89.659,278.406 88.989,277.765 88.605 L 276.600 87.905 277.600 88.733 M121.376 88.987 C 120.949 89.310,120.780 89.575,121.000 89.575 C 121.220 89.575,121.749 89.310,122.176 88.987 C 122.604 88.664,122.773 88.400,122.553 88.400 C 122.333 88.400,121.804 88.664,121.376 88.987 M142.800 90.219 C 140.429 91.449,141.234 91.427,143.800 90.191 C 144.900 89.662,145.530 89.241,145.200 89.257 C 144.870 89.272,143.790 89.705,142.800 90.219 M137.084 93.064 C 135.150 94.074,133.628 94.961,133.702 95.036 C 133.867 95.201,140.800 91.628,140.800 91.378 C 140.800 91.116,140.884 91.078,137.084 93.064 M282.023 91.496 C 282.036 91.663,283.395 92.743,285.043 93.895 C 286.692 95.047,287.939 95.824,287.814 95.622 C 287.457 95.046,281.997 91.155,282.023 91.496 M110.400 96.875 L 108.600 98.485 110.400 97.165 C 111.390 96.439,112.275 95.790,112.367 95.723 C 112.458 95.655,112.458 95.525,112.366 95.433 C 112.274 95.341,111.389 95.990,110.400 96.875 M268.200 96.290 C 268.420 96.500,269.320 97.076,270.200 97.570 C 271.080 98.065,271.440 98.170,271.000 97.804 C 270.106 97.061,267.572 95.691,268.200 96.290 M288.544 96.309 C 288.860 96.821,291.200 98.553,291.200 98.275 C 291.200 98.176,290.539 97.591,289.732 96.975 C 288.924 96.359,288.389 96.059,288.544 96.309 M125.097 100.206 C 122.954 101.639,121.200 102.904,121.200 103.016 C 121.200 103.215,128.218 98.641,128.980 97.947 C 129.927 97.083,128.698 97.798,125.097 100.206 M106.983 99.512 C 106.313 100.110,104.985 101.275,104.031 102.100 C 103.076 102.925,102.454 103.593,102.648 103.584 C 103.015 103.568,108.751 98.421,108.400 98.422 C 108.290 98.423,107.652 98.913,106.983 99.512 M292.400 99.302 C 292.400 99.403,293.885 100.815,295.700 102.440 C 297.515 104.064,298.750 105.076,298.444 104.688 C 297.763 103.825,292.400 99.045,292.400 99.302 M278.140 102.703 C 278.296 102.956,278.991 103.567,279.684 104.060 C 280.377 104.554,280.817 104.750,280.660 104.497 C 280.504 104.244,279.809 103.633,279.116 103.140 C 278.423 102.646,277.983 102.450,278.140 102.703 M117.847 105.402 C 116.332 106.611,115.211 107.600,115.355 107.600 C 115.663 107.600,120.800 103.603,120.800 103.363 C 120.800 103.065,120.617 103.191,117.847 105.402 M98.400 107.400 C 96.540 109.270,95.194 110.777,95.409 110.748 C 95.802 110.696,102.308 104.000,101.965 104.000 C 101.865 104.000,100.260 105.530,98.400 107.400 M286.000 108.925 C 286.000 108.994,286.585 109.579,287.300 110.225 L 288.600 111.400 287.425 110.100 C 286.330 108.888,286.000 108.616,286.000 108.925 M110.290 111.811 C 109.020 113.015,108.126 114.000,108.304 114.000 C 108.482 114.000,109.605 113.010,110.800 111.800 C 113.594 108.971,113.281 108.978,110.290 111.811 M293.383 116.000 C 299.778 122.720,300.593 123.512,297.702 120.200 C 296.359 118.660,293.766 115.960,291.942 114.200 C 289.627 111.967,290.063 112.511,293.383 116.000 M306.463 113.247 C 307.418 114.373,309.148 116.488,310.307 117.947 C 313.727 122.252,314.573 123.186,313.128 121.062 C 311.610 118.830,305.282 111.200,304.949 111.200 C 304.826 111.200,305.507 112.121,306.463 113.247 M93.168 113.100 C 90.809 115.743,90.274 116.400,90.482 116.400 C 90.603 116.400,91.549 115.410,92.582 114.200 C 94.496 111.960,94.955 111.098,93.168 113.100 M88.516 118.700 C 86.577 121.062,83.090 126.000,83.360 126.000 C 83.470 126.000,84.414 124.785,85.458 123.300 C 86.502 121.815,88.058 119.745,88.916 118.700 C 89.773 117.655,90.384 116.800,90.274 116.800 C 90.164 116.800,89.373 117.655,88.516 118.700 M102.818 119.334 L 101.437 121.000 103.118 119.419 C 104.043 118.549,104.800 117.784,104.800 117.719 C 104.800 117.259,103.994 117.916,102.818 119.334 M99.718 122.916 C 99.013 123.842,97.303 126.073,95.918 127.874 C 93.470 131.058,91.784 133.600,92.121 133.600 C 92.212 133.600,92.970 132.565,93.804 131.300 C 94.639 130.035,96.740 127.245,98.472 125.100 C 100.205 122.955,101.483 121.207,101.311 121.216 C 101.140 121.224,100.423 121.989,99.718 122.916 M315.385 124.700 C 316.002 125.635,316.583 126.400,316.676 126.400 C 316.964 126.400,315.433 123.966,314.832 123.469 C 314.520 123.211,314.768 123.765,315.385 124.700 M304.832 129.600 C 306.303 131.697,307.403 132.917,306.544 131.500 C 305.808 130.284,303.507 127.200,303.337 127.200 C 303.234 127.200,303.906 128.280,304.832 129.600 M81.353 128.900 C 79.976 131.236,79.886 131.435,80.587 130.600 C 81.400 129.632,82.100 128.400,81.838 128.400 C 81.733 128.400,81.515 128.625,81.353 128.900 M319.630 131.400 C 320.124 132.280,320.700 133.180,320.910 133.400 C 321.509 134.028,320.139 131.494,319.396 130.600 C 319.030 130.160,319.135 130.520,319.630 131.400 M78.600 133.600 C 78.259 134.260,78.069 134.800,78.179 134.800 C 78.289 134.800,78.659 134.260,79.000 133.600 C 79.341 132.940,79.531 132.400,79.421 132.400 C 79.311 132.400,78.941 132.940,78.600 133.600 M308.215 134.700 C 309.556 136.785,310.000 137.377,310.000 137.080 C 310.000 136.696,307.955 133.600,307.701 133.600 C 307.595 133.600,307.826 134.095,308.215 134.700 M91.302 134.500 C 90.736 135.215,89.940 136.800,90.146 136.800 C 90.242 136.800,90.693 136.170,91.147 135.400 C 91.973 134.001,92.049 133.557,91.302 134.500 M323.486 138.583 C 324.740 141.104,325.831 143.103,325.908 143.025 C 326.085 142.848,321.664 134.000,321.399 134.000 C 321.292 134.000,322.231 136.062,323.486 138.583 M76.179 138.041 C 75.392 139.604,74.814 140.947,74.894 141.027 C 74.973 141.107,75.703 139.828,76.516 138.186 C 77.329 136.544,77.907 135.200,77.802 135.200 C 77.696 135.200,76.966 136.478,76.179 138.041 M89.014 138.235 C 88.641 138.804,88.405 139.338,88.489 139.422 C 88.573 139.507,88.958 139.041,89.344 138.388 C 90.206 136.928,89.948 136.809,89.014 138.235 M310.360 138.200 C 311.034 139.505,311.588 140.228,311.585 139.800 C 311.583 139.580,311.214 138.950,310.764 138.400 C 310.221 137.736,310.085 137.669,310.360 138.200 M86.224 143.469 C 85.649 144.497,85.232 145.496,85.296 145.689 C 85.361 145.882,85.904 145.041,86.502 143.820 C 87.828 141.117,87.658 140.902,86.224 143.469 M312.401 141.720 C 312.399 142.273,313.650 144.484,313.851 144.282 C 313.957 144.177,313.674 143.485,313.223 142.745 C 312.772 142.005,312.402 141.544,312.401 141.720 M69.400 154.400 C 69.250 154.873,69.217 155.350,69.327 155.460 C 69.437 155.570,69.650 155.273,69.800 154.800 C 69.950 154.327,69.983 153.850,69.873 153.740 C 69.763 153.630,69.550 153.927,69.400 154.400 M67.800 160.000 C 67.650 160.473,67.617 160.950,67.727 161.060 C 67.837 161.170,68.050 160.873,68.200 160.400 C 68.350 159.927,68.383 159.450,68.273 159.340 C 68.163 159.230,67.950 159.527,67.800 160.000 M79.073 161.753 C 78.923 162.145,78.811 162.766,78.825 163.133 C 78.842 163.575,78.981 163.474,79.237 162.834 C 79.449 162.303,79.561 161.682,79.485 161.454 C 79.409 161.227,79.224 161.361,79.073 161.753 M320.456 162.000 C 320.456 162.330,320.611 162.960,320.800 163.400 C 321.017 163.904,321.144 163.978,321.144 163.600 C 321.144 163.270,320.989 162.640,320.800 162.200 C 320.583 161.696,320.456 161.622,320.456 162.000 M67.029 163.029 C 66.881 163.615,66.838 164.172,66.932 164.266 C 67.027 164.360,67.224 163.958,67.371 163.371 C 67.519 162.785,67.562 162.228,67.468 162.134 C 67.373 162.040,67.176 162.442,67.029 163.029 M332.468 163.000 C 332.462 163.440,332.611 164.160,332.800 164.600 C 333.238 165.619,333.238 164.568,332.800 163.200 C 332.543 162.396,332.477 162.357,332.468 163.000 M78.229 165.429 C 78.081 166.015,78.038 166.572,78.132 166.666 C 78.227 166.760,78.424 166.358,78.571 165.771 C 78.719 165.185,78.762 164.628,78.668 164.534 C 78.573 164.440,78.376 164.842,78.229 165.429 M321.256 165.200 C 321.256 165.530,321.411 166.160,321.600 166.600 C 321.817 167.104,321.944 167.178,321.944 166.800 C 321.944 166.470,321.789 165.840,321.600 165.400 C 321.383 164.896,321.256 164.822,321.256 165.200 M66.250 166.850 C 65.917 168.517,66.240 168.840,66.600 167.200 C 66.752 166.509,66.793 165.859,66.691 165.758 C 66.589 165.656,66.391 166.147,66.250 166.850 M333.228 166.833 C 333.244 167.365,333.419 168.160,333.619 168.600 C 333.871 169.158,333.907 168.915,333.738 167.800 C 333.455 165.943,333.187 165.436,333.228 166.833 M77.422 169.022 C 77.272 169.825,77.228 170.562,77.326 170.660 C 77.424 170.757,77.627 170.181,77.778 169.378 C 77.928 168.575,77.972 167.838,77.874 167.740 C 77.776 167.643,77.573 168.219,77.422 169.022 M322.068 169.200 C 322.088 170.239,322.718 171.946,322.732 171.000 C 322.738 170.560,322.589 169.840,322.400 169.400 C 322.189 168.910,322.061 168.832,322.068 169.200 M65.455 171.455 C 65.313 172.486,65.274 173.408,65.369 173.502 C 65.463 173.596,65.665 172.839,65.818 171.818 C 65.971 170.798,66.010 169.876,65.904 169.771 C 65.798 169.665,65.596 170.423,65.455 171.455 M334.093 171.800 C 334.094 172.460,334.232 173.540,334.400 174.200 C 334.823 175.863,334.842 174.226,334.423 172.200 C 334.145 170.855,334.092 170.791,334.093 171.800 M76.633 173.633 C 76.483 174.766,76.441 175.774,76.539 175.872 C 76.637 175.971,76.845 175.128,77.000 174.000 C 77.155 172.872,77.198 171.864,77.094 171.761 C 76.991 171.658,76.784 172.500,76.633 173.633 M322.870 173.800 C 322.857 174.240,322.995 175.320,323.177 176.200 C 323.455 177.545,323.508 177.609,323.507 176.600 C 323.505 175.199,322.908 172.570,322.870 173.800 M64.658 178.146 C 64.493 179.876,64.442 181.375,64.544 181.477 C 64.806 181.739,65.315 176.676,65.120 175.758 C 65.031 175.341,64.823 176.416,64.658 178.146 M334.911 178.200 C 334.904 179.300,335.029 181.460,335.187 183.000 C 335.468 185.738,335.474 185.751,335.490 183.600 C 335.499 182.390,335.375 180.230,335.214 178.800 C 334.939 176.354,334.921 176.318,334.911 178.200 M75.857 180.859 C 75.539 183.902,75.589 193.037,75.940 196.000 C 76.083 197.210,76.200 193.745,76.200 188.300 C 76.200 182.855,76.181 178.400,76.157 178.400 C 76.133 178.400,75.998 179.506,75.857 180.859 M323.785 188.000 C 323.797 195.120,323.857 196.003,324.130 193.130 C 324.311 191.222,324.304 187.352,324.115 184.530 C 323.776 179.489,323.770 179.550,323.785 188.000 M335.277 191.000 C 335.231 192.540,335.113 195.060,335.014 196.600 L 334.834 199.400 335.230 196.600 C 335.447 195.060,335.565 192.540,335.492 191.000 L 335.359 188.200 335.277 191.000 M64.688 197.800 C 64.809 199.560,64.974 201.075,65.054 201.167 C 65.329 201.480,65.106 197.003,64.787 195.800 C 64.599 195.090,64.559 195.906,64.688 197.800 M323.033 200.833 C 322.883 201.966,322.841 202.974,322.939 203.072 C 323.037 203.171,323.245 202.328,323.400 201.200 C 323.555 200.072,323.598 199.064,323.494 198.961 C 323.391 198.858,323.184 199.700,323.033 200.833 M76.470 200.600 C 76.457 201.040,76.595 202.120,76.777 203.000 C 77.055 204.345,77.108 204.409,77.107 203.400 C 77.105 201.999,76.508 199.370,76.470 200.600 M334.269 202.756 C 334.121 203.495,334.020 204.483,334.044 204.950 C 334.068 205.418,334.247 204.990,334.442 204.000 C 334.637 203.010,334.738 202.023,334.667 201.806 C 334.596 201.590,334.417 202.017,334.269 202.756 M65.287 203.200 C 65.291 203.750,65.432 204.740,65.600 205.400 L 65.905 206.600 65.913 205.400 C 65.917 204.740,65.776 203.750,65.600 203.200 L 65.280 202.200 65.287 203.200 M322.200 206.000 C 322.046 206.910,322.004 207.738,322.107 207.840 C 322.210 207.943,322.413 207.277,322.560 206.360 C 322.707 205.443,322.748 204.615,322.653 204.520 C 322.558 204.424,322.354 205.090,322.200 206.000 M77.268 205.600 C 77.288 206.639,77.918 208.346,77.932 207.400 C 77.938 206.960,77.789 206.240,77.600 205.800 C 77.389 205.310,77.261 205.232,77.268 205.600 M333.400 208.000 C 333.248 208.691,333.207 209.341,333.309 209.442 C 333.411 209.544,333.609 209.053,333.750 208.350 C 333.891 207.647,333.931 206.998,333.841 206.908 C 333.750 206.817,333.552 207.309,333.400 208.000 M66.262 209.000 C 66.396 209.880,66.572 210.675,66.653 210.767 C 66.956 211.110,66.729 208.968,66.381 208.200 C 66.129 207.642,66.093 207.885,66.262 209.000 M321.450 209.650 C 321.309 210.353,321.269 211.002,321.359 211.092 C 321.450 211.183,321.648 210.691,321.800 210.000 C 321.952 209.309,321.993 208.659,321.891 208.558 C 321.789 208.456,321.591 208.947,321.450 209.650 M78.006 209.833 C 78.009 210.255,78.195 210.870,78.418 211.200 C 78.715 211.638,78.752 211.476,78.556 210.600 C 78.227 209.129,77.998 208.810,78.006 209.833 M332.600 212.000 C 332.448 212.691,332.407 213.341,332.509 213.442 C 332.611 213.544,332.809 213.053,332.950 212.350 C 333.091 211.647,333.131 210.998,333.041 210.908 C 332.950 210.817,332.752 211.309,332.600 212.000 M66.856 212.000 C 66.856 212.330,67.011 212.960,67.200 213.400 C 67.417 213.904,67.544 213.978,67.544 213.600 C 67.544 213.270,67.389 212.640,67.200 212.200 C 66.983 211.696,66.856 211.622,66.856 212.000 M320.629 213.029 C 320.481 213.615,320.438 214.172,320.532 214.266 C 320.627 214.360,320.824 213.958,320.971 213.371 C 321.119 212.785,321.162 212.228,321.068 212.134 C 320.973 212.040,320.776 212.442,320.629 213.029 M78.856 212.800 C 78.856 213.130,79.011 213.760,79.200 214.200 C 79.417 214.704,79.544 214.778,79.544 214.400 C 79.544 214.070,79.389 213.440,79.200 213.000 C 78.983 212.496,78.856 212.422,78.856 212.800 M67.634 215.200 C 67.646 215.530,67.811 216.160,68.000 216.600 L 68.344 217.400 68.366 216.600 C 68.378 216.160,68.213 215.530,68.000 215.200 C 67.655 214.667,67.615 214.667,67.634 215.200 M319.000 218.400 C 318.850 218.873,318.817 219.350,318.927 219.460 C 319.037 219.570,319.250 219.273,319.400 218.800 C 319.550 218.327,319.583 217.850,319.473 217.740 C 319.363 217.630,319.150 217.927,319.000 218.400 M330.200 220.800 C 330.050 221.273,330.017 221.750,330.127 221.860 C 330.237 221.970,330.450 221.673,330.600 221.200 C 330.750 220.727,330.783 220.250,330.673 220.140 C 330.563 220.030,330.350 220.327,330.200 220.800 M74.800 234.953 C 74.800 235.382,75.990 237.600,76.221 237.600 C 76.331 237.600,76.123 237.015,75.759 236.300 C 75.017 234.840,74.800 234.536,74.800 234.953 M311.453 236.100 L 310.733 237.400 311.558 236.400 C 312.289 235.513,312.614 234.800,312.286 234.800 C 312.224 234.800,311.849 235.385,311.453 236.100 M88.415 236.600 C 88.417 236.820,88.786 237.450,89.236 238.000 C 89.779 238.664,89.915 238.731,89.640 238.200 C 88.966 236.895,88.412 236.172,88.415 236.600 M309.853 238.900 L 309.133 240.200 309.958 239.200 C 310.689 238.313,311.014 237.600,310.686 237.600 C 310.624 237.600,310.249 238.185,309.853 238.900 M90.000 239.310 C 90.000 239.690,93.653 245.200,93.905 245.200 C 94.098 245.200,93.635 244.445,91.334 241.005 C 90.600 239.908,90.000 239.145,90.000 239.310 M321.853 240.900 L 321.133 242.200 321.958 241.200 C 322.689 240.313,323.014 239.600,322.686 239.600 C 322.624 239.600,322.249 240.185,321.853 240.900 M79.000 243.200 C 79.341 243.860,79.711 244.400,79.821 244.400 C 79.931 244.400,79.741 243.860,79.400 243.200 C 79.059 242.540,78.689 242.000,78.579 242.000 C 78.469 242.000,78.659 242.540,79.000 243.200 M320.253 243.700 L 319.533 245.000 320.358 244.000 C 321.089 243.113,321.414 242.400,321.086 242.400 C 321.024 242.400,320.649 242.985,320.253 243.700 M316.498 249.637 C 314.902 252.036,313.683 254.000,313.789 254.000 C 314.058 254.000,319.695 245.561,319.532 245.402 C 319.459 245.331,318.094 247.237,316.498 249.637 M95.239 247.347 C 95.987 248.418,97.195 249.948,97.922 250.747 C 98.650 251.546,98.303 250.940,97.152 249.400 C 94.613 246.002,93.355 244.652,95.239 247.347 M301.252 251.300 C 299.637 253.363,299.153 254.131,300.157 253.035 C 301.923 251.108,304.596 247.600,304.299 247.600 C 304.216 247.600,302.845 249.265,301.252 251.300 M85.775 253.732 C 86.391 254.539,86.976 255.200,87.075 255.200 C 87.353 255.200,85.621 252.860,85.109 252.544 C 84.859 252.389,85.159 252.924,85.775 253.732 M100.307 253.800 C 100.988 254.680,103.133 257.036,105.073 259.036 C 107.013 261.036,108.240 262.220,107.800 261.666 C 107.360 261.113,106.459 260.107,105.798 259.430 C 105.137 258.754,103.352 256.850,101.831 255.200 C 100.311 253.550,99.625 252.920,100.307 253.800 M293.194 260.275 C 290.447 263.066,288.920 264.731,289.800 263.975 C 291.582 262.444,298.657 255.200,298.371 255.200 C 298.270 255.200,295.941 257.484,293.194 260.275 M310.877 257.463 C 310.149 258.460,309.731 259.166,309.948 259.032 C 310.592 258.634,312.896 255.598,312.534 255.625 C 312.350 255.638,311.605 256.465,310.877 257.463 M88.400 257.064 C 88.400 257.282,88.895 257.897,89.500 258.430 L 90.600 259.400 89.600 258.200 C 89.050 257.540,88.555 256.925,88.500 256.833 C 88.445 256.742,88.400 256.845,88.400 257.064 M93.400 263.200 C 94.259 264.080,95.052 264.800,95.162 264.800 C 95.272 264.800,94.659 264.080,93.800 263.200 C 92.941 262.320,92.148 261.600,92.038 261.600 C 91.928 261.600,92.541 262.320,93.400 263.200 M307.200 261.979 C 307.200 262.188,304.187 265.383,300.505 269.079 C 296.276 273.325,295.208 274.526,297.605 272.340 C 299.692 270.437,302.195 268.007,303.166 266.940 C 304.138 265.873,305.660 264.235,306.550 263.300 C 307.439 262.365,307.949 261.600,307.683 261.600 C 307.417 261.600,307.200 261.771,307.200 261.979 M109.234 263.100 C 109.252 263.265,110.017 264.022,110.934 264.782 L 112.600 266.163 111.019 264.482 C 109.393 262.752,109.176 262.584,109.234 263.100 M102.637 272.600 C 106.655 276.560,110.495 280.592,111.171 281.560 C 111.847 282.528,112.400 283.182,112.400 283.014 C 112.400 281.840,109.166 278.404,99.566 269.380 C 97.237 267.191,98.619 268.640,102.637 272.600 M285.775 267.300 L 284.600 268.600 285.900 267.425 C 286.615 266.779,287.200 266.194,287.200 266.125 C 287.200 265.816,286.870 266.088,285.775 267.300 M113.639 267.300 C 113.735 267.355,114.620 268.120,115.606 269.000 L 117.400 270.600 115.819 268.900 C 114.949 267.965,114.064 267.200,113.852 267.200 C 113.640 267.200,113.544 267.245,113.639 267.300 M118.831 272.835 C 121.525 276.445,122.006 276.963,120.457 274.584 C 119.592 273.255,118.564 271.905,118.173 271.584 C 117.782 271.263,118.078 271.826,118.831 272.835 M278.785 272.829 L 277.400 274.058 278.900 272.981 C 280.226 272.030,280.657 271.600,280.285 271.600 C 280.222 271.600,279.547 272.153,278.785 272.829 M292.175 276.900 L 291.000 278.200 292.300 277.025 C 293.015 276.379,293.600 275.794,293.600 275.725 C 293.600 275.416,293.270 275.688,292.175 276.900 M122.600 278.400 C 122.941 279.060,123.311 279.600,123.421 279.600 C 123.531 279.600,123.341 279.060,123.000 278.400 C 122.659 277.740,122.289 277.200,122.179 277.200 C 122.069 277.200,122.259 277.740,122.600 278.400 M269.887 278.631 C 268.629 279.418,267.600 280.158,267.600 280.277 C 267.600 280.395,268.079 280.178,268.665 279.794 C 269.251 279.410,270.331 278.741,271.065 278.308 C 272.216 277.629,272.690 277.200,272.287 277.200 C 272.226 277.200,271.146 277.844,269.887 278.631 M287.185 280.832 L 285.800 282.063 287.088 281.213 C 288.230 280.459,289.093 279.600,288.708 279.600 C 288.632 279.600,287.947 280.154,287.185 280.832 M265.600 281.236 C 264.936 281.779,264.869 281.915,265.400 281.640 C 266.705 280.966,267.428 280.412,267.000 280.415 C 266.780 280.417,266.150 280.786,265.600 281.236 M261.293 283.380 C 260.039 284.072,259.662 284.501,260.612 284.155 C 261.598 283.795,263.114 282.786,262.589 282.839 C 262.375 282.861,261.792 283.104,261.293 283.380 M280.493 285.365 C 277.090 287.674,275.334 289.017,276.800 288.190 C 279.663 286.573,285.150 282.660,284.324 282.825 C 284.256 282.838,282.532 283.981,280.493 285.365 M113.000 284.800 C 113.341 285.460,113.711 286.000,113.821 286.000 C 113.931 286.000,113.741 285.460,113.400 284.800 C 113.059 284.140,112.689 283.600,112.579 283.600 C 112.469 283.600,112.659 284.140,113.000 284.800 M257.200 285.419 C 256.210 285.933,255.537 286.363,255.704 286.376 C 256.089 286.406,259.600 284.766,259.600 284.556 C 259.600 284.268,259.010 284.480,257.200 285.419 M126.262 287.800 C 126.396 288.680,126.572 289.475,126.653 289.567 C 126.956 289.910,126.729 287.768,126.381 287.000 C 126.129 286.442,126.093 286.685,126.262 287.800 M274.700 289.029 C 273.205 289.840,273.296 290.178,274.800 289.400 C 275.460 289.059,276.000 288.694,276.000 288.590 C 276.000 288.332,275.957 288.347,274.700 289.029 M115.044 289.800 C 115.373 291.271,115.602 291.590,115.594 290.567 C 115.591 290.145,115.405 289.530,115.182 289.200 C 114.885 288.762,114.848 288.924,115.044 289.800 M271.900 290.629 C 270.405 291.440,270.496 291.778,272.000 291.000 C 272.660 290.659,273.200 290.294,273.200 290.190 C 273.200 289.932,273.157 289.947,271.900 290.629 M126.998 296.431 C 126.996 300.110,127.105 301.873,127.268 300.800 C 127.604 298.584,127.595 293.014,127.253 291.431 C 127.114 290.788,126.999 293.038,126.998 296.431 M266.000 293.800 C 263.690 294.987,261.938 295.968,262.107 295.979 C 262.532 296.008,270.400 292.039,270.400 291.796 C 270.400 291.524,270.645 291.412,266.000 293.800 M115.744 296.400 C 115.744 298.490,115.812 299.345,115.894 298.300 C 115.976 297.255,115.976 295.545,115.894 294.500 C 115.812 293.455,115.744 294.310,115.744 296.400 M228.800 294.800 C 228.008 295.054,227.967 295.120,228.600 295.120 C 229.040 295.120,229.850 294.976,230.400 294.800 C 231.192 294.546,231.233 294.480,230.600 294.480 C 230.160 294.480,229.350 294.624,228.800 294.800 M225.200 295.600 C 224.396 295.857,224.357 295.923,225.000 295.932 C 225.440 295.938,226.160 295.789,226.600 295.600 C 227.619 295.162,226.568 295.162,225.200 295.600 M220.000 296.400 L 219.000 296.720 220.000 296.732 C 220.550 296.738,221.360 296.589,221.800 296.400 L 222.600 296.056 221.800 296.068 C 221.360 296.074,220.550 296.224,220.000 296.400 M259.800 296.778 C 258.920 297.195,258.313 297.550,258.451 297.568 C 258.840 297.618,261.600 296.414,261.600 296.195 C 261.600 295.927,261.599 295.927,259.800 296.778 M213.000 297.200 C 211.068 297.465,211.054 297.476,212.600 297.514 C 213.480 297.536,214.920 297.405,215.800 297.223 C 217.842 296.801,216.020 296.786,213.000 297.200 M175.000 298.000 C 173.479 298.387,198.841 298.404,204.200 298.019 C 206.721 297.838,202.285 297.725,192.200 297.713 C 183.400 297.703,175.660 297.832,175.000 298.000 M115.246 301.667 C 115.221 302.034,115.096 302.664,114.970 303.067 C 114.752 303.762,114.763 303.763,115.197 303.087 C 115.448 302.696,115.573 302.066,115.473 301.687 C 115.311 301.068,115.288 301.066,115.246 301.667 M243.400 302.800 C 242.896 303.017,242.822 303.144,243.200 303.144 C 243.530 303.144,244.160 302.989,244.600 302.800 C 245.104 302.583,245.178 302.456,244.800 302.456 C 244.470 302.456,243.840 302.611,243.400 302.800 M126.229 304.629 C 126.081 305.215,126.038 305.772,126.132 305.866 C 126.227 305.960,126.424 305.558,126.571 304.971 C 126.719 304.385,126.762 303.828,126.668 303.734 C 126.573 303.640,126.376 304.042,126.229 304.629 M163.087 305.368 C 160.726 307.002,160.164 307.575,161.906 306.572 C 163.250 305.799,165.556 304.023,165.200 304.036 C 165.090 304.041,164.139 304.640,163.087 305.368 M237.800 304.400 L 237.000 304.744 237.800 304.766 C 238.240 304.778,238.870 304.613,239.200 304.400 C 239.995 303.886,238.996 303.886,237.800 304.400 M114.229 305.429 C 114.081 306.015,114.038 306.572,114.132 306.666 C 114.227 306.760,114.424 306.358,114.571 305.771 C 114.719 305.185,114.762 304.628,114.668 304.534 C 114.573 304.440,114.376 304.842,114.229 305.429 M231.200 306.000 C 230.408 306.254,230.367 306.320,231.000 306.320 C 231.440 306.320,232.250 306.176,232.800 306.000 C 233.592 305.746,233.633 305.680,233.000 305.680 C 232.560 305.680,231.750 305.824,231.200 306.000 M227.400 306.800 C 226.381 307.238,227.432 307.238,228.800 306.800 C 229.604 306.543,229.643 306.477,229.000 306.468 C 228.560 306.462,227.840 306.611,227.400 306.800 M158.697 307.966 C 157.098 308.991,156.803 309.406,158.200 308.666 C 159.876 307.777,160.671 307.208,160.200 307.235 C 159.980 307.248,159.304 307.577,158.697 307.966 M222.200 307.610 C 221.666 307.847,221.998 307.886,223.200 307.727 C 224.190 307.596,225.075 307.424,225.167 307.344 C 225.514 307.043,222.964 307.272,222.200 307.610 M216.000 308.407 C 215.379 308.611,215.909 308.651,217.400 308.512 C 218.720 308.389,219.875 308.224,219.967 308.144 C 220.289 307.865,216.988 308.084,216.000 308.407 M192.400 309.200 L 177.800 309.415 192.000 309.455 C 199.810 309.477,207.550 309.368,209.200 309.212 L 212.200 308.929 209.600 308.957 C 208.170 308.972,200.430 309.082,192.400 309.200 M155.100 310.027 C 154.275 310.463,153.600 310.908,153.600 311.018 C 153.600 311.127,154.320 310.849,155.200 310.400 C 156.080 309.951,156.800 309.497,156.800 309.392 C 156.800 309.130,156.797 309.131,155.100 310.027 M174.450 311.394 C 173.047 312.354,171.697 313.359,171.450 313.625 C 171.202 313.891,172.395 313.179,174.100 312.042 C 175.805 310.906,177.200 309.891,177.200 309.788 C 177.200 309.509,177.204 309.507,174.450 311.394 M123.200 314.084 C 123.200 314.204,122.928 314.954,122.595 315.751 C 122.262 316.548,122.079 317.200,122.189 317.200 C 122.506 317.200,123.633 314.300,123.405 314.072 C 123.292 313.959,123.200 313.965,123.200 314.084 M167.793 315.856 C 165.752 317.209,165.032 317.923,166.626 317.014 C 168.030 316.214,169.901 314.822,169.593 314.809 C 169.479 314.804,168.669 315.275,167.793 315.856 M109.152 316.900 C 108.890 317.395,108.415 318.250,108.096 318.800 C 107.539 319.759,107.543 319.767,108.188 319.000 C 108.986 318.052,110.105 316.000,109.824 316.000 C 109.716 316.000,109.414 316.405,109.152 316.900 M132.400 319.200 C 131.576 319.464,131.541 319.526,132.200 319.554 C 132.640 319.573,133.270 319.413,133.600 319.200 C 134.301 318.747,133.814 318.747,132.400 319.200 M157.000 321.840 C 154.360 323.230,152.338 324.375,152.507 324.384 C 152.837 324.401,161.007 320.305,162.000 319.624 C 163.509 318.589,161.391 319.528,157.000 321.840 M129.200 320.000 C 128.376 320.264,128.341 320.326,129.000 320.354 C 129.440 320.373,130.070 320.213,130.400 320.000 C 131.101 319.547,130.614 319.547,129.200 320.000 M124.600 320.800 C 123.522 321.074,123.502 321.106,124.400 321.113 C 124.950 321.117,125.850 320.976,126.400 320.800 C 127.744 320.369,126.292 320.369,124.600 320.800 M105.017 323.735 C 103.342 326.593,103.764 329.856,106.059 331.798 L 107.000 332.594 106.150 331.597 C 104.051 329.134,103.804 326.488,105.417 323.735 C 105.976 322.781,106.344 322.000,106.234 322.000 C 106.124 322.000,105.576 322.781,105.017 323.735 M134.600 330.400 C 134.096 330.617,134.022 330.744,134.400 330.744 C 134.730 330.744,135.360 330.589,135.800 330.400 C 136.304 330.183,136.378 330.056,136.000 330.056 C 135.670 330.056,135.040 330.211,134.600 330.400 M131.000 331.200 C 129.981 331.638,131.032 331.638,132.400 331.200 C 133.204 330.943,133.243 330.877,132.600 330.868 C 132.160 330.862,131.440 331.011,131.000 331.200 M126.600 332.000 C 125.530 332.272,125.508 332.305,126.400 332.305 C 126.950 332.305,127.940 332.168,128.600 332.000 C 129.670 331.728,129.692 331.695,128.800 331.695 C 128.250 331.695,127.260 331.832,126.600 332.000 M107.800 332.781 C 108.568 333.129,110.710 333.356,110.367 333.053 C 110.275 332.972,109.480 332.796,108.600 332.662 C 107.485 332.493,107.242 332.529,107.800 332.781 M119.600 332.800 C 117.975 333.053,117.936 333.082,119.200 333.105 C 119.970 333.119,121.500 332.990,122.600 332.818 C 124.492 332.524,124.513 332.507,123.000 332.514 C 122.120 332.517,120.590 332.646,119.600 332.800 " stroke="none" fill="#848484" fill-rule="evenodd"></path><path id="path4" d="M199.305 66.687 C 199.914 66.779,200.814 66.777,201.305 66.682 C 201.797 66.587,201.300 66.511,200.200 66.514 C 199.100 66.517,198.697 66.595,199.305 66.687 M199.300 78.276 C 199.685 78.376,200.315 78.376,200.700 78.276 C 201.085 78.175,200.770 78.093,200.000 78.093 C 199.230 78.093,198.915 78.175,199.300 78.276 M323.720 190.400 C 323.720 191.610,323.795 192.105,323.887 191.500 C 323.978 190.895,323.978 189.905,323.887 189.300 C 323.795 188.695,323.720 189.190,323.720 190.400 " stroke="none" fill="#7c7c7c" fill-rule="evenodd"></path><path id="path5" d="M193.500 66.693 C 194.435 66.777,195.965 66.777,196.900 66.693 C 197.835 66.609,197.070 66.540,195.200 66.540 C 193.330 66.540,192.565 66.609,193.500 66.693 M205.305 66.687 C 205.914 66.779,206.814 66.777,207.305 66.682 C 207.797 66.587,207.300 66.511,206.200 66.514 C 205.100 66.517,204.697 66.595,205.305 66.687 M64.146 188.600 C 64.147 190.800,64.214 191.649,64.295 190.487 C 64.376 189.324,64.376 187.524,64.293 186.487 C 64.211 185.449,64.145 186.400,64.146 188.600 M323.701 187.000 C 323.705 187.880,323.787 188.193,323.883 187.695 C 323.979 187.198,323.975 186.478,323.875 186.095 C 323.775 185.713,323.696 186.120,323.701 187.000 M112.300 333.493 C 113.235 333.577,114.765 333.577,115.700 333.493 C 116.635 333.409,115.870 333.340,114.000 333.340 C 112.130 333.340,111.365 333.409,112.300 333.493 " stroke="none" fill="#747474" fill-rule="evenodd"></path><path id="path6" d="M187.905 66.683 C 188.402 66.779,189.122 66.775,189.505 66.675 C 189.887 66.575,189.480 66.496,188.600 66.501 C 187.720 66.505,187.407 66.587,187.905 66.683 M210.500 66.676 C 210.885 66.776,211.515 66.776,211.900 66.676 C 212.285 66.575,211.970 66.493,211.200 66.493 C 210.430 66.493,210.115 66.575,210.500 66.676 M196.912 78.695 C 197.964 78.777,199.584 78.776,200.512 78.692 C 201.440 78.608,200.580 78.541,198.600 78.542 C 196.620 78.543,195.860 78.612,196.912 78.695 M301.200 106.925 C 301.200 106.994,301.785 107.579,302.500 108.225 L 303.800 109.400 302.625 108.100 C 301.530 106.888,301.200 106.616,301.200 106.925 M107.983 261.300 C 109.641 263.066,110.000 263.384,110.000 263.083 C 110.000 263.019,109.145 262.164,108.100 261.183 L 106.200 259.400 107.983 261.300 M127.737 296.200 C 127.739 297.960,127.809 298.630,127.893 297.689 C 127.978 296.749,127.977 295.309,127.891 294.489 C 127.805 293.670,127.736 294.440,127.737 296.200 M115.309 296.000 C 115.309 296.990,115.387 297.395,115.482 296.900 C 115.578 296.405,115.578 295.595,115.482 295.100 C 115.387 294.605,115.309 295.010,115.309 296.000 M205.105 297.483 C 205.602 297.579,206.322 297.575,206.705 297.475 C 207.087 297.375,206.680 297.296,205.800 297.301 C 204.920 297.305,204.607 297.387,205.105 297.483 M205.500 309.882 C 205.995 309.978,206.805 309.978,207.300 309.882 C 207.795 309.787,207.390 309.709,206.400 309.709 C 205.410 309.709,205.005 309.787,205.500 309.882 " stroke="none" fill="#3c3c3c" fill-rule="evenodd"></path><path id="path7" d="M323.342 185.400 C 323.341 187.380,323.408 188.240,323.492 187.312 C 323.576 186.384,323.577 184.764,323.495 183.712 C 323.412 182.660,323.343 183.420,323.342 185.400 M182.100 297.499 C 186.225 297.564,192.975 297.564,197.100 297.499 C 201.225 297.434,197.850 297.381,189.600 297.381 C 181.350 297.381,177.975 297.434,182.100 297.499 " stroke="none" fill="#343434" fill-rule="evenodd"></path><path id="path8" d="M197.300 66.297 C 198.785 66.374,201.215 66.374,202.700 66.297 C 204.185 66.220,202.970 66.157,200.000 66.157 C 197.030 66.157,195.815 66.220,197.300 66.297 M184.200 66.800 C 183.181 67.238,184.232 67.238,185.600 66.800 C 186.404 66.543,186.443 66.477,185.800 66.468 C 185.360 66.462,184.640 66.611,184.200 66.800 M214.000 66.780 C 214.999 67.120,217.482 67.332,217.167 67.051 C 217.075 66.969,216.100 66.799,215.000 66.672 C 213.651 66.516,213.326 66.551,214.000 66.780 M220.433 67.344 C 220.525 67.423,221.140 67.608,221.800 67.756 C 222.676 67.952,222.838 67.915,222.400 67.618 C 221.860 67.253,220.032 66.998,220.433 67.344 M196.521 79.098 C 198.677 79.171,202.097 79.170,204.121 79.098 C 206.144 79.025,204.380 78.966,200.200 78.967 C 196.020 78.967,194.364 79.026,196.521 79.098 M184.600 79.600 C 182.937 80.023,184.574 80.042,186.600 79.623 C 187.945 79.345,188.009 79.292,187.000 79.293 C 186.340 79.294,185.260 79.432,184.600 79.600 M213.400 79.600 C 214.060 79.768,215.140 79.906,215.800 79.907 C 216.809 79.908,216.745 79.855,215.400 79.577 C 213.374 79.158,211.737 79.177,213.400 79.600 M178.400 80.400 C 177.596 80.657,177.557 80.723,178.200 80.732 C 178.640 80.738,179.360 80.589,179.800 80.400 C 180.819 79.962,179.768 79.962,178.400 80.400 M98.508 106.500 C 95.819 109.195,93.486 111.580,93.323 111.800 C 93.161 112.020,95.406 109.863,98.314 107.006 C 103.210 102.195,103.780 101.600,103.498 101.600 C 103.442 101.600,101.196 103.805,98.508 106.500 M301.400 106.800 C 303.371 108.780,305.073 110.400,305.183 110.400 C 305.293 110.400,303.771 108.780,301.800 106.800 C 299.829 104.820,298.127 103.200,298.017 103.200 C 297.907 103.200,299.429 104.820,301.400 106.800 M107.392 115.700 L 103.400 119.800 107.500 115.808 C 111.308 112.099,111.782 111.600,111.492 111.600 C 111.433 111.600,109.588 113.445,107.392 115.700 M290.000 113.286 C 290.000 113.541,293.212 116.800,293.464 116.800 C 293.778 116.800,293.510 116.478,291.800 114.800 C 290.810 113.828,290.000 113.147,290.000 113.286 M101.375 122.100 L 100.200 123.400 101.500 122.225 C 102.712 121.130,102.984 120.800,102.675 120.800 C 102.606 120.800,102.021 121.385,101.375 122.100 M303.999 129.500 C 304.522 130.215,305.013 130.800,305.089 130.800 C 305.393 130.800,304.401 129.300,303.745 128.767 C 303.313 128.416,303.410 128.696,303.999 129.500 M320.880 166.600 C 320.880 167.040,321.024 167.850,321.200 168.400 C 321.454 169.192,321.520 169.233,321.520 168.600 C 321.520 168.160,321.376 167.350,321.200 166.800 C 320.946 166.008,320.880 165.967,320.880 166.600 M334.644 171.000 C 334.973 172.471,335.202 172.790,335.194 171.767 C 335.191 171.345,335.005 170.730,334.782 170.400 C 334.485 169.962,334.448 170.124,334.644 171.000 M64.256 175.284 C 64.121 175.788,64.027 176.560,64.046 177.000 C 64.065 177.440,64.245 177.098,64.446 176.240 C 64.836 174.578,64.670 173.740,64.256 175.284 M322.501 177.000 C 322.505 177.880,322.587 178.193,322.683 177.695 C 322.779 177.198,322.775 176.478,322.675 176.095 C 322.575 175.713,322.496 176.120,322.501 177.000 M335.462 177.400 C 335.596 178.280,335.772 179.075,335.853 179.167 C 336.156 179.510,335.929 177.368,335.581 176.600 C 335.329 176.042,335.293 176.285,335.462 177.400 M76.562 187.800 C 76.562 191.320,76.624 192.706,76.698 190.881 C 76.772 189.056,76.772 186.176,76.697 184.481 C 76.622 182.786,76.561 184.280,76.562 187.800 M323.309 190.400 C 323.309 191.390,323.387 191.795,323.482 191.300 C 323.578 190.805,323.578 189.995,323.482 189.500 C 323.387 189.005,323.309 189.410,323.309 190.400 M322.600 198.400 C 322.445 199.528,322.402 200.536,322.506 200.639 C 322.609 200.742,322.816 199.900,322.967 198.767 C 323.117 197.634,323.159 196.626,323.061 196.528 C 322.963 196.429,322.755 197.272,322.600 198.400 M335.646 197.667 C 335.621 198.034,335.496 198.664,335.370 199.067 C 335.152 199.762,335.163 199.763,335.597 199.087 C 335.848 198.696,335.973 198.066,335.873 197.687 C 335.711 197.068,335.688 197.066,335.646 197.667 M64.006 199.433 C 64.009 200.075,64.196 200.870,64.421 201.200 C 64.714 201.630,64.754 201.346,64.562 200.200 C 64.230 198.216,63.998 197.896,64.006 199.433 M334.629 205.029 C 334.481 205.615,334.438 206.172,334.532 206.266 C 334.627 206.360,334.824 205.958,334.971 205.371 C 335.119 204.785,335.162 204.228,335.068 204.134 C 334.973 204.040,334.776 204.442,334.629 205.029 M333.829 209.429 C 333.681 210.015,333.651 210.584,333.761 210.694 C 333.871 210.804,334.081 210.415,334.229 209.829 C 334.376 209.242,334.406 208.673,334.296 208.563 C 334.186 208.453,333.976 208.842,333.829 209.429 M322.600 240.800 C 322.043 241.900,321.677 242.800,321.787 242.800 C 321.897 242.800,322.443 241.900,323.000 240.800 C 323.557 239.700,323.923 238.800,323.813 238.800 C 323.703 238.800,323.157 239.700,322.600 240.800 M100.400 252.925 C 100.400 252.994,100.985 253.579,101.700 254.225 L 103.000 255.400 101.825 254.100 C 100.730 252.888,100.400 252.616,100.400 252.925 M294.175 258.500 L 293.000 259.800 294.300 258.625 C 295.015 257.979,295.600 257.394,295.600 257.325 C 295.600 257.016,295.270 257.288,294.175 258.500 M91.634 262.247 C 92.165 262.933,92.680 263.423,92.779 263.335 C 92.877 263.247,92.443 262.686,91.813 262.088 L 90.669 261.000 91.634 262.247 M285.970 266.300 L 285.000 267.400 286.200 266.400 C 286.860 265.850,287.475 265.355,287.567 265.300 C 287.658 265.245,287.555 265.200,287.336 265.200 C 287.118 265.200,286.503 265.695,285.970 266.300 M96.200 267.200 C 97.059 268.080,97.852 268.800,97.962 268.800 C 98.072 268.800,97.459 268.080,96.600 267.200 C 95.741 266.320,94.948 265.600,94.838 265.600 C 94.728 265.600,95.341 266.320,96.200 267.200 M115.800 268.400 C 116.883 269.500,117.860 270.400,117.970 270.400 C 118.080 270.400,117.283 269.500,116.200 268.400 C 115.117 267.300,114.140 266.400,114.030 266.400 C 113.920 266.400,114.717 267.300,115.800 268.400 M300.589 270.100 L 297.800 273.000 300.700 270.211 C 303.394 267.620,303.783 267.200,303.489 267.200 C 303.428 267.200,302.123 268.505,300.589 270.100 M101.200 272.200 C 102.395 273.410,103.463 274.400,103.573 274.400 C 103.683 274.400,102.795 273.410,101.600 272.200 C 100.405 270.990,99.337 270.000,99.227 270.000 C 99.117 270.000,100.005 270.990,101.200 272.200 M106.783 277.300 C 108.441 279.066,108.800 279.384,108.800 279.083 C 108.800 279.019,107.945 278.164,106.900 277.183 L 105.000 275.400 106.783 277.300 M127.480 290.691 C 127.790 292.700,128.000 292.861,128.000 291.090 C 128.000 290.297,127.831 289.543,127.624 289.415 C 127.399 289.276,127.341 289.791,127.480 290.691 M266.000 294.600 C 265.010 295.130,264.342 295.572,264.516 295.582 C 264.941 295.606,268.000 294.034,268.000 293.792 C 268.000 293.527,268.017 293.520,266.000 294.600 M218.200 296.019 C 217.642 296.271,217.885 296.307,219.000 296.138 C 219.880 296.004,220.675 295.828,220.767 295.747 C 221.110 295.444,218.968 295.671,218.200 296.019 M211.705 296.687 C 212.314 296.779,213.214 296.777,213.705 296.682 C 214.197 296.587,213.700 296.511,212.600 296.514 C 211.500 296.517,211.097 296.595,211.705 296.687 M127.693 301.200 C 127.693 301.970,127.775 302.285,127.876 301.900 C 127.976 301.515,127.976 300.885,127.876 300.500 C 127.775 300.115,127.693 300.430,127.693 301.200 M160.200 306.400 C 159.540 306.837,159.180 307.192,159.400 307.188 C 159.801 307.182,161.976 305.623,161.600 305.612 C 161.490 305.608,160.860 305.963,160.200 306.400 M224.400 308.000 L 223.400 308.320 224.476 308.360 C 225.068 308.382,225.664 308.220,225.800 308.000 C 226.081 307.545,225.820 307.545,224.400 308.000 M218.800 308.800 C 217.996 309.057,217.957 309.123,218.600 309.132 C 219.040 309.138,219.760 308.989,220.200 308.800 C 221.219 308.362,220.168 308.362,218.800 308.800 M210.600 309.600 L 209.000 309.886 210.600 309.915 C 211.480 309.931,212.560 309.789,213.000 309.600 L 213.800 309.256 213.000 309.285 C 212.560 309.301,211.480 309.442,210.600 309.600 M124.865 311.817 C 124.609 312.378,124.407 313.054,124.416 313.319 C 124.424 313.583,124.697 313.188,125.022 312.439 C 125.705 310.865,125.561 310.290,124.865 311.817 M122.600 320.419 C 122.042 320.671,122.285 320.707,123.400 320.538 C 124.280 320.404,125.075 320.228,125.167 320.147 C 125.510 319.844,123.368 320.071,122.600 320.419 M105.184 322.023 C 104.705 322.696,104.379 323.313,104.461 323.394 C 104.543 323.476,105.014 322.926,105.508 322.171 C 106.623 320.471,106.371 320.356,105.184 322.023 M103.293 327.200 C 103.293 327.970,103.375 328.285,103.476 327.900 C 103.576 327.515,103.576 326.885,103.476 326.500 C 103.375 326.115,103.293 326.430,103.293 327.200 M123.400 333.200 C 122.293 333.482,122.277 333.509,123.200 333.547 C 123.750 333.569,124.470 333.413,124.800 333.200 C 125.481 332.760,125.129 332.760,123.400 333.200 M112.300 333.893 C 113.235 333.977,114.765 333.977,115.700 333.893 C 116.635 333.809,115.870 333.740,114.000 333.740 C 112.130 333.740,111.365 333.809,112.300 333.893 " stroke="none" fill="#272727" fill-rule="evenodd"></path></g></svg>