<svg xmlns="http://www.w3.org/2000/svg" version="1.1" xmlns:xlink="http://www.w3.org/1999/xlink" xmlns:svgjs="http://svgjs.dev/svgjs" viewBox="0 0 800 800" opacity="0.88"><defs><linearGradient x1="50%" y1="0%" x2="50%" y2="100%" id="ggglitch-grad"><stop stop-color="hsl(265, 55%, 30%)" stop-opacity="1" offset="45%"></stop><stop stop-color="hsl(265, 55%, 60%)" stop-opacity="1" offset="100%"></stop></linearGradient><clipPath id="SvgjsClipPath1668"><rect width="32" height="800" x="0" y="0"></rect><rect width="32" height="800" x="64" y="0"></rect><rect width="32" height="800" x="128" y="0"></rect><rect width="32" height="800" x="192" y="0"></rect><rect width="32" height="800" x="256" y="0"></rect><rect width="32" height="800" x="320" y="0"></rect><rect width="32" height="800" x="384" y="0"></rect><rect width="32" height="800" x="448" y="0"></rect><rect width="32" height="800" x="512" y="0"></rect><rect width="32" height="800" x="576" y="0"></rect><rect width="32" height="800" x="640" y="0"></rect><rect width="32" height="800" x="704" y="0"></rect><rect width="32" height="800" x="768" y="0"></rect><rect width="32" height="800" x="832" y="0"></rect><rect width="32" height="800" x="896" y="0"></rect><rect width="32" height="800" x="960" y="0"></rect><rect width="32" height="800" x="1024" y="0"></rect><rect width="32" height="800" x="1088" y="0"></rect><rect width="32" height="800" x="1152" y="0"></rect><rect width="32" height="800" x="1216" y="0"></rect><rect width="32" height="800" x="1280" y="0"></rect><rect width="32" height="800" x="1344" y="0"></rect><rect width="32" height="800" x="1408" y="0"></rect><rect width="32" height="800" x="1472" y="0"></rect><rect width="32" height="800" x="1536" y="0"></rect><rect width="32" height="800" x="1600" y="0"></rect></clipPath><clipPath id="SvgjsClipPath1669"><rect width="32" height="800" x="32" y="0"></rect><rect width="32" height="800" x="96" y="0"></rect><rect width="32" height="800" x="160" y="0"></rect><rect width="32" height="800" x="224" y="0"></rect><rect width="32" height="800" x="288" y="0"></rect><rect width="32" height="800" x="352" y="0"></rect><rect width="32" height="800" x="416" y="0"></rect><rect width="32" height="800" x="480" y="0"></rect><rect width="32" height="800" x="544" y="0"></rect><rect width="32" height="800" x="608" y="0"></rect><rect width="32" height="800" x="672" y="0"></rect><rect width="32" height="800" x="736" y="0"></rect><rect width="32" height="800" x="800" y="0"></rect><rect width="32" height="800" x="864" y="0"></rect><rect width="32" height="800" x="928" y="0"></rect><rect width="32" height="800" x="992" y="0"></rect><rect width="32" height="800" x="1056" y="0"></rect><rect width="32" height="800" x="1120" y="0"></rect><rect width="32" height="800" x="1184" y="0"></rect><rect width="32" height="800" x="1248" y="0"></rect><rect width="32" height="800" x="1312" y="0"></rect><rect width="32" height="800" x="1376" y="0"></rect><rect width="32" height="800" x="1440" y="0"></rect><rect width="32" height="800" x="1504" y="0"></rect><rect width="32" height="800" x="1568" y="0"></rect></clipPath></defs><g stroke-width="90" stroke="url(#ggglitch-grad)" fill="none"><polygon points="-45,45 45,-45 845,755 755,845" stroke="none" fill="url(#ggglitch-grad)" clip-path="url(&quot;#SvgjsClipPath1668&quot;)" opacity="0.27" transform="translate(0 -627)"></polygon><polygon points="-45,45 45,-45 845,755 755,845" stroke="none" fill="url(#ggglitch-grad)" clip-path="url(&quot;#SvgjsClipPath1669&quot;)" transform="translate(0 -694)"></polygon><polygon points="-45,45 45,-45 845,755 755,845" stroke="none" fill="url(#ggglitch-grad)" clip-path="url(&quot;#SvgjsClipPath1668&quot;)" opacity="0.27" transform="translate(0 -507)"></polygon><polygon points="-45,45 45,-45 845,755 755,845" stroke="none" fill="url(#ggglitch-grad)" clip-path="url(&quot;#SvgjsClipPath1669&quot;)" transform="translate(0 -574)"></polygon><polygon points="-45,45 45,-45 845,755 755,845" stroke="none" fill="url(#ggglitch-grad)" clip-path="url(&quot;#SvgjsClipPath1668&quot;)" opacity="0.27" transform="translate(0 -387)"></polygon><polygon points="-45,45 45,-45 845,755 755,845" stroke="none" fill="url(#ggglitch-grad)" clip-path="url(&quot;#SvgjsClipPath1669&quot;)" transform="translate(0 -454)"></polygon><polygon points="-45,45 45,-45 845,755 755,845" stroke="none" fill="url(#ggglitch-grad)" clip-path="url(&quot;#SvgjsClipPath1668&quot;)" opacity="0.27" transform="translate(0 -267)"></polygon><polygon points="-45,45 45,-45 845,755 755,845" stroke="none" fill="url(#ggglitch-grad)" clip-path="url(&quot;#SvgjsClipPath1669&quot;)" transform="translate(0 -334)"></polygon><polygon points="-45,45 45,-45 845,755 755,845" stroke="none" fill="url(#ggglitch-grad)" clip-path="url(&quot;#SvgjsClipPath1668&quot;)" opacity="0.27" transform="translate(0 -147)"></polygon><polygon points="-45,45 45,-45 845,755 755,845" stroke="none" fill="url(#ggglitch-grad)" clip-path="url(&quot;#SvgjsClipPath1669&quot;)" transform="translate(0 -214)"></polygon><polygon points="-45,45 45,-45 845,755 755,845" stroke="none" fill="url(#ggglitch-grad)" clip-path="url(&quot;#SvgjsClipPath1668&quot;)" opacity="0.27" transform="translate(0 -27)"></polygon><polygon points="-45,45 45,-45 845,755 755,845" stroke="none" fill="url(#ggglitch-grad)" clip-path="url(&quot;#SvgjsClipPath1669&quot;)" transform="translate(0 -94)"></polygon><polygon points="-45,45 45,-45 845,755 755,845" stroke="none" fill="url(#ggglitch-grad)" clip-path="url(&quot;#SvgjsClipPath1668&quot;)" opacity="0.27" transform="translate(0 93)"></polygon><polygon points="-45,45 45,-45 845,755 755,845" stroke="none" fill="url(#ggglitch-grad)" clip-path="url(&quot;#SvgjsClipPath1669&quot;)" transform="translate(0 26)"></polygon><polygon points="-45,45 45,-45 845,755 755,845" stroke="none" fill="url(#ggglitch-grad)" clip-path="url(&quot;#SvgjsClipPath1668&quot;)" opacity="0.27" transform="translate(0 213)"></polygon><polygon points="-45,45 45,-45 845,755 755,845" stroke="none" fill="url(#ggglitch-grad)" clip-path="url(&quot;#SvgjsClipPath1669&quot;)" transform="translate(0 146)"></polygon><polygon points="-45,45 45,-45 845,755 755,845" stroke="none" fill="url(#ggglitch-grad)" clip-path="url(&quot;#SvgjsClipPath1668&quot;)" opacity="0.27" transform="translate(0 333)"></polygon><polygon points="-45,45 45,-45 845,755 755,845" stroke="none" fill="url(#ggglitch-grad)" clip-path="url(&quot;#SvgjsClipPath1669&quot;)" transform="translate(0 266)"></polygon></g></svg>