<svg id="svg" version="1.1" xmlns="http://www.w3.org/2000/svg" xmlns:xlink="http://www.w3.org/1999/xlink" width="400" height="400" viewBox="0, 0, 400,400"><g id="svgg"><path id="path0" d="M191.965 66.964 C 191.836 67.096,189.316 67.387,186.365 67.612 C 181.174 68.007,178.868 68.295,173.800 69.180 C 169.582 69.917,166.817 70.499,162.400 71.579 C 150.144 74.576,131.532 82.532,122.928 88.450 C 122.008 89.082,121.108 89.601,120.928 89.602 C 120.748 89.603,119.651 90.323,118.492 91.202 C 117.332 92.081,116.207 92.800,115.992 92.800 C 115.776 92.800,115.600 92.941,115.600 93.114 C 115.600 93.286,115.067 93.743,114.415 94.128 C 113.763 94.513,112.998 95.049,112.715 95.320 C 112.432 95.590,111.390 96.435,110.400 97.198 C 90.680 112.389,73.497 137.738,68.371 159.200 C 68.187 159.970,67.837 161.410,67.593 162.400 C 63.691 178.245,63.698 199.614,67.612 213.800 C 67.855 214.680,68.197 216.030,68.373 216.800 C 68.798 218.657,71.479 226.681,72.182 228.200 C 72.488 228.860,73.108 230.342,73.560 231.493 C 75.910 237.470,86.113 254.904,88.373 256.800 C 88.504 256.910,89.418 257.990,90.405 259.200 C 94.212 263.868,98.220 268.043,105.711 275.142 C 110.426 279.610,112.465 282.371,114.327 286.800 C 118.241 296.115,115.977 306.600,106.858 321.385 C 100.307 332.005,105.926 335.013,126.600 331.953 C 139.074 330.107,156.644 323.233,168.119 315.711 C 169.051 315.100,170.099 314.420,170.449 314.200 C 170.799 313.980,172.594 312.765,174.439 311.500 L 177.793 309.200 190.996 309.172 C 211.716 309.129,218.789 308.527,233.000 305.600 C 244.832 303.162,263.089 296.050,273.054 289.996 C 274.499 289.118,275.759 288.400,275.853 288.400 C 276.083 288.400,285.746 281.940,286.000 281.616 C 286.110 281.476,286.830 280.926,287.600 280.394 C 288.370 279.862,289.195 279.240,289.434 279.013 C 289.673 278.786,290.656 277.970,291.619 277.200 C 293.851 275.415,303.196 266.734,303.213 266.430 C 303.220 266.303,304.482 264.868,306.018 263.240 C 329.137 238.728,340.189 199.481,333.205 166.700 C 332.982 165.655,332.639 164.035,332.442 163.100 C 330.506 153.902,324.359 138.824,319.455 131.242 C 318.435 129.665,317.600 128.281,317.600 128.166 C 317.600 127.841,314.470 123.290,312.259 120.400 C 304.907 110.788,296.361 102.299,287.043 95.352 C 284.819 93.694,282.683 92.082,282.295 91.769 C 281.908 91.456,281.495 91.200,281.377 91.200 C 281.260 91.200,279.867 90.331,278.282 89.270 C 276.697 88.208,275.130 87.222,274.800 87.079 C 274.470 86.936,273.300 86.277,272.200 85.616 C 265.033 81.307,250.247 75.086,241.634 72.755 C 232.078 70.170,230.280 69.787,221.000 68.363 C 214.381 67.346,192.617 66.298,191.965 66.964 M211.431 78.401 C 219.920 79.179,226.603 80.307,234.200 82.245 C 236.180 82.750,238.250 83.276,238.800 83.415 C 239.350 83.553,240.160 83.811,240.600 83.988 C 241.040 84.164,242.210 84.541,243.200 84.824 C 244.190 85.107,245.171 85.488,245.380 85.670 C 245.589 85.851,246.086 86.000,246.485 86.000 C 246.884 86.000,247.523 86.159,247.905 86.353 C 248.581 86.697,249.866 87.237,251.700 87.949 C 279.403 98.702,304.996 122.711,315.712 148.000 C 316.038 148.770,316.607 150.079,316.975 150.908 C 318.485 154.305,321.074 162.885,322.254 168.400 C 325.372 182.970,324.294 206.255,320.022 216.600 C 319.840 217.040,319.458 218.210,319.174 219.200 C 318.889 220.190,318.546 221.180,318.411 221.400 C 318.277 221.620,317.937 222.520,317.657 223.400 C 316.815 226.043,312.824 234.404,310.783 237.800 C 310.122 238.900,309.282 240.385,308.917 241.100 C 308.551 241.815,308.105 242.400,307.926 242.400 C 307.747 242.400,307.600 242.630,307.600 242.911 C 307.600 245.473,289.565 265.398,283.497 269.541 C 283.004 269.878,282.510 270.259,282.400 270.388 C 279.525 273.758,261.991 284.012,252.900 287.641 C 252.405 287.838,251.550 288.180,251.000 288.400 C 250.450 288.620,249.595 288.962,249.100 289.160 C 248.605 289.357,247.570 289.736,246.800 290.000 C 246.030 290.264,245.040 290.634,244.600 290.822 C 243.417 291.327,238.135 292.883,235.200 293.591 C 234.430 293.776,232.720 294.197,231.400 294.525 C 220.169 297.319,207.592 298.400,186.320 298.400 L 173.761 298.400 172.114 299.500 C 171.208 300.105,168.787 301.795,166.734 303.256 C 163.364 305.652,161.601 306.774,157.200 309.322 C 153.838 311.269,144.666 315.600,143.905 315.600 C 143.605 315.600,143.189 315.762,142.980 315.959 C 142.648 316.273,137.272 318.147,133.800 319.158 C 130.921 319.997,125.978 320.983,122.445 321.422 C 119.831 321.747,119.831 321.802,122.493 315.800 C 130.788 297.100,128.016 281.219,114.141 267.950 C 101.501 255.863,94.559 247.595,89.556 238.671 C 88.623 237.007,83.617 226.860,83.157 225.700 C 82.961 225.205,82.644 224.395,82.454 223.900 C 82.263 223.405,81.921 222.550,81.694 222.000 C 80.879 220.028,79.605 215.880,78.376 211.200 C 73.606 193.038,75.182 170.097,82.437 152.100 C 82.637 151.605,82.957 150.795,83.149 150.300 C 83.539 149.296,85.115 145.743,85.603 144.771 C 94.165 127.687,105.279 114.654,121.608 102.550 C 126.997 98.555,141.486 90.447,146.200 88.789 C 147.159 88.451,148.490 87.905,150.453 87.044 C 151.966 86.381,158.516 84.151,160.600 83.590 C 171.739 80.593,177.761 79.462,188.000 78.445 C 192.900 77.958,206.328 77.933,211.431 78.401 " stroke="none" fill="#080808" fill-rule="evenodd"></path><path id="path1" d="M0.000 200.000 L 0.000 400.000 200.000 400.000 L 400.000 400.000 400.000 200.000 L 400.000 0.000 200.000 0.000 L 0.000 0.000 0.000 200.000 M209.400 66.431 C 215.960 66.800,219.273 67.140,224.800 68.013 C 226.230 68.238,228.120 68.526,229.000 68.653 C 229.880 68.779,230.771 69.044,230.980 69.241 C 231.189 69.438,232.046 69.600,232.885 69.600 C 233.724 69.600,234.723 69.761,235.105 69.957 C 235.487 70.154,236.790 70.530,238.000 70.794 C 239.210 71.058,241.190 71.594,242.400 71.985 C 243.610 72.376,245.500 72.976,246.600 73.318 C 255.137 75.968,270.977 83.242,276.062 86.847 C 276.646 87.261,277.321 87.600,277.562 87.600 C 277.803 87.600,278.000 87.780,278.000 88.000 C 278.000 88.220,278.190 88.400,278.422 88.400 C 278.931 88.400,283.744 91.607,283.933 92.072 C 284.007 92.253,284.236 92.400,284.442 92.400 C 284.772 92.400,289.879 96.193,290.400 96.826 C 290.510 96.959,290.891 97.233,291.247 97.434 C 294.102 99.047,307.499 112.439,310.384 116.565 C 310.705 117.024,311.469 117.940,312.082 118.600 C 312.695 119.260,313.197 120.010,313.198 120.267 C 313.199 120.523,313.350 120.793,313.534 120.867 C 315.101 121.493,325.029 138.621,327.471 144.911 C 327.832 145.840,328.246 146.780,328.391 147.000 C 328.537 147.220,328.900 148.210,329.198 149.200 C 329.495 150.190,329.888 151.171,330.070 151.380 C 330.251 151.589,330.400 152.086,330.400 152.485 C 330.400 152.884,330.558 153.523,330.751 153.905 C 331.335 155.061,332.000 157.404,332.000 158.305 C 332.000 158.771,332.180 159.264,332.400 159.400 C 332.620 159.536,332.800 160.256,332.800 161.000 C 332.800 161.744,332.980 162.464,333.200 162.600 C 333.420 162.736,333.600 163.546,333.600 164.400 C 333.600 165.254,333.780 166.064,334.000 166.200 C 334.220 166.336,334.400 167.301,334.400 168.344 C 334.400 169.387,334.566 170.411,334.769 170.620 C 335.389 171.258,335.667 176.493,335.681 187.800 C 335.695 197.830,335.428 202.008,334.419 207.600 C 334.200 208.810,333.915 210.520,333.786 211.400 C 333.656 212.280,333.404 213.360,333.224 213.800 C 333.045 214.240,332.683 215.590,332.421 216.800 C 332.159 218.010,331.802 219.360,331.628 219.800 C 331.453 220.240,331.093 221.320,330.827 222.200 C 330.397 223.620,329.297 226.716,328.412 229.000 C 325.859 235.580,318.006 250.153,316.700 250.733 C 316.535 250.807,316.400 251.030,316.400 251.230 C 316.400 251.539,314.779 253.860,313.068 256.000 C 312.804 256.330,312.150 257.230,311.613 258.000 C 311.077 258.770,310.357 259.670,310.015 260.000 C 309.672 260.330,308.912 261.245,308.326 262.033 C 305.699 265.569,293.224 277.541,289.946 279.672 C 289.378 280.042,288.662 280.588,288.356 280.886 C 288.050 281.183,287.170 281.866,286.400 282.402 C 285.630 282.939,284.651 283.698,284.225 284.089 C 283.798 284.480,283.213 284.800,282.925 284.800 C 282.636 284.800,282.400 284.950,282.400 285.132 C 282.400 285.315,281.905 285.715,281.300 286.022 C 280.695 286.328,279.175 287.258,277.922 288.089 C 276.669 288.920,275.469 289.600,275.255 289.600 C 275.042 289.600,274.807 289.735,274.733 289.900 C 274.022 291.500,256.604 299.460,246.965 302.591 C 243.904 303.585,240.847 304.579,240.172 304.799 C 239.496 305.020,238.472 305.200,237.895 305.200 C 237.319 305.200,236.748 305.360,236.627 305.556 C 236.415 305.899,235.189 306.178,231.800 306.656 C 230.920 306.780,230.029 307.044,229.820 307.241 C 229.611 307.438,228.612 307.600,227.600 307.600 C 226.588 307.600,225.589 307.765,225.380 307.966 C 225.171 308.168,223.830 308.439,222.400 308.570 C 220.970 308.701,218.180 309.000,216.200 309.236 C 214.220 309.472,204.731 309.785,195.112 309.932 C 179.271 310.175,177.548 310.266,176.808 310.900 C 176.359 311.285,175.813 311.600,175.595 311.600 C 175.378 311.600,175.200 311.780,175.200 312.000 C 175.200 312.220,174.930 312.400,174.600 312.400 C 174.270 312.400,174.000 312.580,174.000 312.800 C 174.000 313.020,173.812 313.200,173.583 313.200 C 173.354 313.200,172.811 313.531,172.377 313.936 C 171.942 314.341,171.095 314.926,170.493 315.235 C 169.892 315.545,169.310 315.889,169.200 315.999 C 168.839 316.362,166.436 318.000,166.266 318.000 C 166.174 318.000,163.978 319.170,161.385 320.600 C 158.792 322.030,156.627 323.200,156.575 323.200 C 156.522 323.200,154.949 323.914,153.079 324.786 C 151.208 325.658,148.940 326.602,148.039 326.883 C 147.138 327.165,146.400 327.531,146.400 327.697 C 146.400 327.864,145.961 328.000,145.424 328.000 C 144.887 328.000,144.336 328.180,144.200 328.400 C 144.064 328.620,143.524 328.800,143.000 328.800 C 142.476 328.800,141.936 328.980,141.800 329.200 C 141.664 329.420,141.124 329.600,140.600 329.600 C 140.076 329.600,139.536 329.780,139.400 330.000 C 139.264 330.220,138.634 330.400,138.000 330.400 C 137.366 330.400,136.736 330.580,136.600 330.800 C 136.464 331.020,135.769 331.200,135.056 331.200 C 134.343 331.200,133.589 331.362,133.380 331.559 C 133.171 331.756,132.280 332.021,131.400 332.147 C 130.520 332.274,128.630 332.580,127.200 332.828 C 125.770 333.077,120.703 333.361,115.939 333.461 L 107.279 333.643 105.681 332.121 C 102.631 329.217,102.623 326.254,105.654 321.565 C 108.395 317.325,110.400 313.940,110.400 313.554 C 110.400 313.156,111.257 311.522,111.635 311.200 C 111.764 311.090,112.118 310.145,112.422 309.100 C 112.726 308.055,113.115 307.200,113.287 307.200 C 113.459 307.200,113.600 306.671,113.600 306.024 C 113.600 305.377,113.780 304.736,114.000 304.600 C 114.220 304.464,114.400 303.679,114.400 302.856 C 114.400 302.033,114.596 301.164,114.837 300.923 C 115.565 300.195,114.945 290.489,114.023 288.200 C 113.153 286.037,111.728 283.319,111.101 282.625 C 110.715 282.198,110.400 281.638,110.400 281.381 C 110.400 281.123,107.767 278.412,104.549 275.356 C 101.331 272.300,98.226 269.276,97.649 268.635 C 97.072 267.994,95.880 266.731,95.000 265.829 C 94.120 264.927,92.592 263.201,91.605 261.994 C 90.619 260.788,89.706 259.710,89.577 259.600 C 86.554 257.014,75.569 239.184,73.189 233.000 C 72.711 231.756,71.571 229.121,70.956 227.839 C 70.650 227.200,70.400 226.355,70.400 225.962 C 70.400 225.569,70.220 225.136,70.000 225.000 C 69.780 224.864,69.600 224.401,69.600 223.971 C 69.600 223.541,69.442 222.877,69.249 222.495 C 68.713 221.433,68.000 219.024,68.000 218.272 C 68.000 217.902,67.820 217.600,67.600 217.600 C 67.380 217.600,67.200 216.891,67.200 216.024 C 67.200 215.157,67.039 214.348,66.842 214.226 C 66.645 214.105,66.385 213.329,66.263 212.503 C 66.141 211.676,65.840 210.010,65.596 208.800 C 64.534 203.549,64.305 199.873,64.302 188.000 C 64.300 174.702,64.490 172.483,66.360 164.000 C 66.578 163.010,66.873 161.660,67.014 161.000 C 67.454 158.946,68.850 154.234,69.234 153.505 C 69.435 153.123,69.600 152.536,69.600 152.200 C 69.600 151.607,69.766 151.184,70.738 149.305 C 70.992 148.813,71.200 148.166,71.200 147.867 C 71.200 147.568,71.450 146.800,71.756 146.161 C 72.062 145.523,72.621 144.280,72.997 143.400 C 74.058 140.921,74.581 139.818,74.799 139.600 C 74.910 139.490,75.889 137.625,76.976 135.455 C 78.961 131.492,84.981 121.916,85.645 121.667 C 85.840 121.593,86.000 121.355,86.000 121.138 C 86.000 120.921,86.225 120.506,86.500 120.216 C 87.066 119.620,87.604 118.959,89.600 116.409 C 94.490 110.160,106.586 98.460,111.838 94.898 C 112.697 94.316,113.749 93.516,114.175 93.120 C 114.602 92.724,115.172 92.400,115.442 92.400 C 115.712 92.400,115.993 92.253,116.067 92.072 C 116.256 91.607,121.069 88.400,121.578 88.400 C 121.810 88.400,122.000 88.220,122.000 88.000 C 122.000 87.780,122.236 87.600,122.525 87.600 C 122.813 87.600,123.400 87.285,123.828 86.900 C 126.595 84.414,144.646 76.032,152.400 73.633 C 154.050 73.122,155.760 72.567,156.200 72.398 C 156.640 72.229,157.810 71.878,158.800 71.618 C 159.790 71.359,161.153 70.978,161.828 70.773 C 162.504 70.568,163.438 70.400,163.905 70.400 C 164.371 70.400,164.849 70.244,164.967 70.053 C 165.085 69.862,165.951 69.593,166.891 69.454 C 167.831 69.315,169.590 69.013,170.800 68.783 C 183.191 66.422,195.698 65.660,209.400 66.431 M187.534 79.399 C 187.399 79.535,185.513 79.813,183.344 80.018 C 177.178 80.599,172.292 81.478,165.400 83.247 C 164.520 83.473,163.213 83.755,162.496 83.873 C 161.779 83.992,161.094 84.249,160.973 84.444 C 160.852 84.640,160.234 84.800,159.600 84.800 C 158.966 84.800,158.336 84.980,158.200 85.200 C 158.064 85.420,157.524 85.600,157.000 85.600 C 156.476 85.600,155.936 85.780,155.800 86.000 C 155.664 86.220,155.113 86.400,154.576 86.400 C 154.039 86.400,153.600 86.580,153.600 86.800 C 153.600 87.020,153.238 87.200,152.795 87.200 C 152.352 87.200,151.677 87.359,151.295 87.553 C 150.630 87.891,149.452 88.388,147.500 89.153 C 141.693 91.428,131.412 96.940,126.298 100.519 C 124.978 101.444,123.606 102.380,123.249 102.599 C 122.218 103.233,118.253 106.150,117.665 106.706 C 117.371 106.984,116.473 107.704,115.668 108.306 C 114.013 109.544,113.897 109.650,108.754 114.648 C 104.025 119.244,102.916 120.464,98.985 125.400 C 97.233 127.600,95.587 129.626,95.326 129.902 C 95.066 130.179,94.738 130.764,94.599 131.202 C 94.460 131.641,94.200 132.000,94.022 132.000 C 93.843 132.000,93.473 132.540,93.200 133.200 C 92.927 133.860,92.566 134.400,92.398 134.400 C 92.230 134.400,91.993 134.715,91.871 135.100 C 91.652 135.790,90.392 138.011,89.998 138.400 C 89.808 138.587,88.550 140.965,86.400 145.200 C 85.898 146.190,85.358 147.360,85.200 147.800 C 85.042 148.240,84.528 149.382,84.057 150.338 C 83.586 151.294,83.200 152.408,83.200 152.814 C 83.200 153.220,83.020 153.664,82.800 153.800 C 82.580 153.936,82.400 154.487,82.400 155.024 C 82.400 155.561,82.220 156.000,82.000 156.000 C 81.780 156.000,81.597 156.315,81.594 156.700 C 81.591 157.085,81.297 158.210,80.941 159.200 C 80.585 160.190,80.146 161.630,79.965 162.400 C 79.784 163.170,79.437 164.610,79.193 165.600 C 77.433 172.748,77.002 177.119,77.006 187.800 C 77.009 198.924,77.291 201.850,79.200 210.600 C 79.439 211.700,79.739 213.097,79.864 213.705 C 79.990 214.313,80.251 214.908,80.446 215.029 C 80.641 215.149,80.800 215.689,80.800 216.229 C 80.800 216.769,80.958 217.523,81.151 217.905 C 81.344 218.287,81.716 219.320,81.977 220.200 C 82.239 221.080,82.621 222.205,82.826 222.700 C 83.032 223.195,83.401 224.095,83.647 224.700 C 83.892 225.305,84.252 226.113,84.447 226.495 C 84.641 226.877,84.800 227.462,84.800 227.795 C 84.800 228.128,84.980 228.400,85.200 228.400 C 85.420 228.400,85.600 228.634,85.600 228.920 C 85.600 229.656,86.541 231.593,86.900 231.597 C 87.065 231.599,87.200 231.865,87.200 232.188 C 87.200 232.511,87.560 233.411,88.000 234.188 C 89.988 237.697,90.357 238.347,90.862 239.225 C 91.158 239.739,91.537 240.348,91.705 240.580 C 91.872 240.811,92.815 242.226,93.800 243.724 C 95.522 246.344,98.675 250.589,99.708 251.677 C 99.981 251.965,101.013 253.189,102.002 254.399 C 102.991 255.608,106.035 258.758,108.766 261.399 C 117.218 269.569,119.639 272.102,121.203 274.404 C 123.049 277.123,125.600 282.065,125.600 282.923 C 125.600 283.269,125.780 283.664,126.000 283.800 C 126.220 283.936,126.400 284.476,126.400 285.000 C 126.400 285.524,126.561 286.052,126.758 286.174 C 127.391 286.565,127.698 289.652,127.735 296.000 C 127.774 302.861,127.494 304.984,125.913 309.800 C 125.120 312.216,124.338 314.140,122.862 317.308 C 121.412 320.419,121.312 321.001,122.300 320.604 C 122.685 320.448,124.080 320.160,125.400 319.962 C 126.720 319.765,128.700 319.413,129.800 319.179 C 130.900 318.946,132.387 318.656,133.104 318.534 C 133.821 318.412,134.506 318.151,134.627 317.956 C 134.748 317.760,135.276 317.600,135.800 317.600 C 136.324 317.600,136.864 317.420,137.000 317.200 C 137.136 316.980,137.689 316.800,138.229 316.800 C 138.769 316.800,139.523 316.641,139.905 316.447 C 140.581 316.103,141.866 315.563,143.700 314.851 C 146.957 313.587,157.725 308.275,158.400 307.600 C 158.720 307.280,160.115 306.436,161.200 305.905 C 161.750 305.636,162.290 305.318,162.400 305.199 C 162.510 305.079,163.140 304.646,163.800 304.235 C 164.460 303.824,166.620 302.283,168.600 300.811 C 173.712 297.009,172.216 297.242,192.800 297.032 C 215.296 296.802,220.924 296.267,233.200 293.193 C 234.190 292.945,235.587 292.645,236.304 292.527 C 237.021 292.408,237.706 292.151,237.827 291.956 C 237.948 291.760,238.566 291.600,239.200 291.600 C 239.834 291.600,240.464 291.420,240.600 291.200 C 240.736 290.980,241.276 290.800,241.800 290.800 C 242.324 290.800,242.864 290.620,243.000 290.400 C 243.136 290.180,243.676 290.000,244.200 290.000 C 244.724 290.000,245.264 289.820,245.400 289.600 C 245.536 289.380,245.999 289.200,246.429 289.200 C 246.859 289.200,247.523 289.041,247.905 288.847 C 248.679 288.453,250.576 287.650,251.800 287.197 C 255.622 285.784,265.993 280.473,270.400 277.671 C 274.339 275.168,276.996 273.415,277.200 273.186 C 277.310 273.063,278.030 272.525,278.800 271.992 C 279.570 271.458,280.549 270.702,280.975 270.311 C 281.402 269.920,281.915 269.600,282.115 269.600 C 282.315 269.600,282.956 269.103,283.540 268.496 C 284.123 267.889,285.586 266.584,286.792 265.596 C 291.980 261.345,299.615 252.897,304.321 246.200 C 305.558 244.440,306.712 242.940,306.885 242.867 C 307.058 242.793,307.200 242.512,307.200 242.242 C 307.200 241.972,307.515 241.402,307.900 240.975 C 308.528 240.279,309.730 238.208,310.960 235.703 C 311.202 235.210,311.535 234.805,311.700 234.803 C 311.865 234.801,312.000 234.440,312.000 234.000 C 312.000 233.560,312.180 233.200,312.400 233.200 C 312.620 233.200,312.800 232.955,312.800 232.656 C 312.800 232.357,313.364 230.962,314.053 229.556 C 314.742 228.150,315.438 226.640,315.599 226.200 C 316.041 224.998,316.849 223.088,317.247 222.305 C 317.441 221.923,317.600 221.259,317.600 220.829 C 317.600 220.399,317.780 219.936,318.000 219.800 C 318.220 219.664,318.400 219.201,318.400 218.771 C 318.400 218.341,318.562 217.677,318.761 217.295 C 318.960 216.913,319.332 215.790,319.588 214.800 C 319.844 213.810,320.222 212.447,320.427 211.772 C 320.632 211.096,320.800 210.097,320.800 209.552 C 320.800 209.006,320.963 208.389,321.161 208.180 C 321.360 207.971,321.615 206.990,321.729 206.000 C 321.843 205.010,322.175 202.490,322.468 200.400 C 323.050 196.243,323.186 181.063,322.679 176.800 C 322.354 174.062,322.006 172.119,320.960 167.200 C 320.610 165.550,320.230 163.613,320.117 162.896 C 320.004 162.179,319.751 161.494,319.556 161.373 C 319.360 161.252,319.200 160.634,319.200 160.000 C 319.200 159.366,319.020 158.736,318.800 158.600 C 318.580 158.464,318.400 158.001,318.400 157.571 C 318.400 157.141,318.220 156.432,318.000 155.995 C 317.780 155.558,317.420 154.842,317.200 154.405 C 316.980 153.968,316.800 153.336,316.800 153.000 C 316.800 152.664,316.640 152.077,316.444 151.695 C 316.248 151.313,315.708 150.145,315.244 149.100 C 313.569 145.329,312.594 143.398,312.300 143.267 C 312.135 143.193,312.000 142.876,312.000 142.561 C 312.000 142.033,311.266 140.466,310.800 140.000 C 310.690 139.890,310.164 139.000,309.630 138.022 C 305.044 129.610,291.907 114.071,285.200 109.123 C 284.430 108.555,283.410 107.755,282.934 107.345 C 281.287 105.928,280.594 105.385,279.200 104.414 C 278.430 103.877,277.710 103.340,277.600 103.219 C 277.490 103.099,277.108 102.820,276.751 102.600 C 276.394 102.380,275.044 101.464,273.751 100.565 C 269.256 97.440,256.234 90.400,254.949 90.400 C 254.647 90.400,254.400 90.220,254.400 90.000 C 254.400 89.780,254.128 89.600,253.796 89.600 C 253.463 89.600,252.428 89.255,251.496 88.834 C 250.563 88.412,249.080 87.835,248.200 87.552 C 247.320 87.269,246.429 86.893,246.220 86.718 C 246.011 86.543,245.514 86.400,245.115 86.400 C 244.716 86.400,244.032 86.220,243.595 86.000 C 243.158 85.780,242.442 85.420,242.005 85.200 C 241.568 84.980,240.769 84.800,240.229 84.800 C 239.689 84.800,239.148 84.640,239.027 84.444 C 238.906 84.249,238.221 83.992,237.504 83.873 C 236.787 83.755,235.390 83.454,234.400 83.204 C 233.410 82.955,232.060 82.660,231.400 82.548 C 230.740 82.437,229.840 82.189,229.400 81.998 C 228.960 81.806,227.880 81.544,227.000 81.414 C 226.120 81.285,224.230 80.996,222.800 80.773 C 221.370 80.550,218.850 80.180,217.200 79.950 C 213.884 79.488,187.927 79.006,187.534 79.399 " stroke="none" fill="#fbfbfb" fill-rule="evenodd"></path><path id="path2" d="M191.907 66.690 C 192.626 66.779,193.706 66.777,194.307 66.686 C 194.908 66.595,194.320 66.522,193.000 66.524 C 191.680 66.526,191.188 66.601,191.907 66.690 M206.307 66.690 C 207.026 66.779,208.106 66.777,208.707 66.686 C 209.308 66.595,208.720 66.522,207.400 66.524 C 206.080 66.526,205.588 66.601,206.307 66.690 M193.105 78.683 C 193.602 78.779,194.322 78.775,194.705 78.675 C 195.087 78.575,194.680 78.496,193.800 78.501 C 192.920 78.505,192.607 78.587,193.105 78.683 M205.505 78.683 C 206.002 78.779,206.722 78.775,207.105 78.675 C 207.487 78.575,207.080 78.496,206.200 78.501 C 205.320 78.505,205.007 78.587,205.505 78.683 M212.100 79.076 C 212.485 79.176,213.115 79.176,213.500 79.076 C 213.885 78.975,213.570 78.893,212.800 78.893 C 212.030 78.893,211.715 78.975,212.100 79.076 M98.800 106.600 C 97.828 107.590,97.123 108.400,97.233 108.400 C 97.343 108.400,98.228 107.590,99.200 106.600 C 100.172 105.610,100.877 104.800,100.767 104.800 C 100.657 104.800,99.772 105.610,98.800 106.600 M290.400 113.310 C 290.400 113.371,291.795 114.766,293.500 116.410 L 296.600 119.400 293.610 116.300 C 290.833 113.421,290.400 113.017,290.400 113.310 M64.128 182.800 C 64.128 184.230,64.201 184.815,64.289 184.100 C 64.378 183.385,64.378 182.215,64.289 181.500 C 64.201 180.785,64.128 181.370,64.128 182.800 M76.158 187.800 C 76.158 190.880,76.221 192.087,76.297 190.482 C 76.373 188.878,76.373 186.358,76.296 184.882 C 76.219 183.407,76.157 184.720,76.158 187.800 M335.746 188.600 C 335.747 190.800,335.814 191.649,335.895 190.487 C 335.976 189.324,335.976 187.524,335.893 186.487 C 335.811 185.449,335.745 186.400,335.746 188.600 M64.120 194.000 C 64.120 195.210,64.195 195.705,64.287 195.100 C 64.378 194.495,64.378 193.505,64.287 192.900 C 64.195 192.295,64.120 192.790,64.120 194.000 M323.293 196.800 C 323.293 197.570,323.375 197.885,323.476 197.500 C 323.576 197.115,323.576 196.485,323.476 196.100 C 323.375 195.715,323.293 196.030,323.293 196.800 M296.175 256.900 L 295.000 258.200 296.300 257.025 C 297.512 255.930,297.784 255.600,297.475 255.600 C 297.406 255.600,296.821 256.185,296.175 256.900 M289.375 263.700 L 288.200 265.000 289.500 263.825 C 290.215 263.179,290.800 262.594,290.800 262.525 C 290.800 262.216,290.470 262.488,289.375 263.700 M98.400 269.000 C 99.817 270.430,101.067 271.600,101.177 271.600 C 101.287 271.600,100.217 270.430,98.800 269.000 C 97.383 267.570,96.133 266.400,96.023 266.400 C 95.913 266.400,96.983 267.570,98.400 269.000 M208.100 297.476 C 208.485 297.576,209.115 297.576,209.500 297.476 C 209.885 297.375,209.570 297.293,208.800 297.293 C 208.030 297.293,207.715 297.375,208.100 297.476 M183.725 309.899 C 187.204 309.966,192.784 309.966,196.125 309.899 C 199.466 309.832,196.620 309.778,189.800 309.778 C 182.980 309.778,180.246 309.833,183.725 309.899 M111.300 333.497 C 112.785 333.574,115.215 333.574,116.700 333.497 C 118.185 333.420,116.970 333.357,114.000 333.357 C 111.030 333.357,109.815 333.420,111.300 333.497 " stroke="none" fill="#a4a4a4" fill-rule="evenodd"></path><path id="path3" d="M198.905 78.287 C 199.514 78.379,200.414 78.377,200.905 78.282 C 201.397 78.187,200.900 78.111,199.800 78.114 C 198.700 78.117,198.297 78.195,198.905 78.287 M182.300 297.899 C 185.875 297.966,191.725 297.966,195.300 297.899 C 198.875 297.833,195.950 297.779,188.800 297.779 C 181.650 297.779,178.725 297.833,182.300 297.899 " stroke="none" fill="#7c7c7c" fill-rule="evenodd"></path><path id="path4" d="M187.000 67.200 L 185.000 67.474 186.800 67.508 C 187.790 67.526,189.410 67.397,190.400 67.220 L 192.200 66.900 190.600 66.913 C 189.720 66.920,188.100 67.049,187.000 67.200 M210.000 67.220 C 210.990 67.397,212.520 67.530,213.400 67.517 C 214.959 67.494,214.948 67.485,213.000 67.182 C 210.136 66.735,207.469 66.770,210.000 67.220 M179.400 68.000 C 178.330 68.272,178.308 68.305,179.200 68.305 C 179.750 68.305,180.740 68.168,181.400 68.000 C 182.470 67.728,182.492 67.695,181.600 67.695 C 181.050 67.695,180.060 67.832,179.400 68.000 M218.400 67.980 C 219.399 68.320,221.882 68.532,221.567 68.251 C 221.475 68.169,220.500 67.999,219.400 67.872 C 218.051 67.716,217.726 67.751,218.400 67.980 M174.200 68.800 C 173.122 69.074,173.102 69.106,174.000 69.113 C 174.550 69.117,175.450 68.976,176.000 68.800 C 177.344 68.369,175.892 68.369,174.200 68.800 M223.800 68.800 C 224.460 68.968,225.450 69.105,226.000 69.105 C 226.892 69.105,226.870 69.072,225.800 68.800 C 225.140 68.632,224.150 68.495,223.600 68.495 C 222.708 68.495,222.730 68.528,223.800 68.800 M170.000 69.600 C 169.196 69.857,169.157 69.923,169.800 69.932 C 170.240 69.938,170.960 69.789,171.400 69.600 C 172.419 69.162,171.368 69.162,170.000 69.600 M228.600 69.600 C 229.040 69.789,229.760 69.938,230.200 69.932 C 230.843 69.923,230.804 69.857,230.000 69.600 C 228.632 69.162,227.581 69.162,228.600 69.600 M166.200 70.400 C 165.696 70.617,165.622 70.744,166.000 70.744 C 166.330 70.744,166.960 70.589,167.400 70.400 C 167.904 70.183,167.978 70.056,167.600 70.056 C 167.270 70.056,166.640 70.211,166.200 70.400 M232.600 70.400 C 233.040 70.589,233.670 70.744,234.000 70.744 C 234.378 70.744,234.304 70.617,233.800 70.400 C 233.360 70.211,232.730 70.056,232.400 70.056 C 232.022 70.056,232.096 70.183,232.600 70.400 M235.800 71.200 C 236.240 71.389,236.870 71.544,237.200 71.544 C 237.578 71.544,237.504 71.417,237.000 71.200 C 236.560 71.011,235.930 70.856,235.600 70.856 C 235.222 70.856,235.296 70.983,235.800 71.200 M238.800 71.982 C 239.130 72.205,239.745 72.391,240.167 72.394 C 241.190 72.402,240.871 72.173,239.400 71.844 C 238.524 71.648,238.362 71.685,238.800 71.982 M157.000 72.800 C 156.496 73.017,156.422 73.144,156.800 73.144 C 157.130 73.144,157.760 72.989,158.200 72.800 C 158.704 72.583,158.778 72.456,158.400 72.456 C 158.070 72.456,157.440 72.611,157.000 72.800 M256.000 77.766 C 256.550 78.060,257.450 78.412,258.000 78.549 C 258.550 78.686,258.280 78.452,257.400 78.029 C 255.590 77.158,254.468 76.948,256.000 77.766 M192.912 78.295 C 193.964 78.377,195.584 78.376,196.512 78.292 C 197.440 78.208,196.580 78.141,194.600 78.142 C 192.620 78.143,191.860 78.212,192.912 78.295 M203.300 78.294 C 204.345 78.376,206.055 78.376,207.100 78.294 C 208.145 78.212,207.290 78.144,205.200 78.144 C 203.110 78.144,202.255 78.212,203.300 78.294 M188.105 78.687 C 188.714 78.779,189.614 78.777,190.105 78.682 C 190.597 78.587,190.100 78.511,189.000 78.514 C 187.900 78.517,187.497 78.595,188.105 78.687 M210.100 78.687 C 210.705 78.778,211.695 78.778,212.300 78.687 C 212.905 78.595,212.410 78.520,211.200 78.520 C 209.990 78.520,209.495 78.595,210.100 78.687 M138.400 79.800 C 137.410 80.330,136.780 80.764,137.000 80.764 C 137.220 80.764,138.210 80.330,139.200 79.800 C 140.190 79.270,140.820 78.836,140.600 78.836 C 140.380 78.836,139.390 79.270,138.400 79.800 M181.400 79.200 C 179.737 79.623,181.374 79.642,183.400 79.223 C 184.745 78.945,184.809 78.892,183.800 78.893 C 183.140 78.894,182.060 79.032,181.400 79.200 M216.600 79.223 C 218.626 79.642,220.263 79.623,218.600 79.200 C 217.940 79.032,216.860 78.894,216.200 78.893 C 215.191 78.892,215.255 78.945,216.600 79.223 M176.000 80.000 C 174.656 80.431,176.108 80.431,177.800 80.000 C 178.878 79.726,178.898 79.694,178.000 79.687 C 177.450 79.683,176.550 79.824,176.000 80.000 M222.000 80.000 C 222.550 80.176,223.360 80.326,223.800 80.332 L 224.600 80.344 223.800 80.000 C 223.360 79.811,222.550 79.662,222.000 79.668 L 221.000 79.680 222.000 80.000 M171.800 80.800 C 170.781 81.238,171.832 81.238,173.200 80.800 C 174.004 80.543,174.043 80.477,173.400 80.468 C 172.960 80.462,172.240 80.611,171.800 80.800 M226.800 80.800 C 228.168 81.238,229.219 81.238,228.200 80.800 C 227.760 80.611,227.040 80.462,226.600 80.468 C 225.957 80.477,225.996 80.543,226.800 80.800 M168.200 81.600 C 167.696 81.817,167.622 81.944,168.000 81.944 C 168.330 81.944,168.960 81.789,169.400 81.600 C 169.904 81.383,169.978 81.256,169.600 81.256 C 169.270 81.256,168.640 81.411,168.200 81.600 M230.600 81.600 C 231.040 81.789,231.670 81.944,232.000 81.944 C 232.378 81.944,232.304 81.817,231.800 81.600 C 231.360 81.411,230.730 81.256,230.400 81.256 C 230.022 81.256,230.096 81.383,230.600 81.600 M165.000 82.400 C 164.496 82.617,164.422 82.744,164.800 82.744 C 165.130 82.744,165.760 82.589,166.200 82.400 C 166.704 82.183,166.778 82.056,166.400 82.056 C 166.070 82.056,165.440 82.211,165.000 82.400 M233.800 82.400 C 234.240 82.589,234.870 82.744,235.200 82.744 C 235.578 82.744,235.504 82.617,235.000 82.400 C 234.560 82.211,233.930 82.056,233.600 82.056 C 233.222 82.056,233.296 82.183,233.800 82.400 M270.800 84.764 C 271.350 85.214,271.980 85.583,272.200 85.585 C 272.628 85.588,271.905 85.034,270.600 84.360 C 270.069 84.085,270.136 84.221,270.800 84.764 M273.600 86.364 C 274.150 86.814,274.780 87.183,275.000 87.185 C 275.428 87.188,274.705 86.634,273.400 85.960 C 272.869 85.685,272.936 85.821,273.600 86.364 M121.800 88.800 C 121.140 89.237,120.780 89.592,121.000 89.588 C 121.401 89.582,123.576 88.023,123.200 88.012 C 123.090 88.008,122.460 88.363,121.800 88.800 M276.800 88.097 C 276.800 88.350,281.105 91.200,281.487 91.200 C 281.764 91.200,280.592 90.356,277.900 88.618 C 277.295 88.228,276.800 87.993,276.800 88.097 M258.033 90.949 C 258.445 91.317,260.800 92.400,260.800 92.221 C 260.800 91.990,258.582 90.800,258.153 90.800 C 257.996 90.800,257.942 90.867,258.033 90.949 M116.800 92.000 C 116.250 92.430,115.997 92.786,116.238 92.791 C 116.479 92.796,117.002 92.440,117.400 92.000 C 118.312 90.992,118.088 90.992,116.800 92.000 M135.900 93.627 C 135.075 94.063,134.400 94.508,134.400 94.618 C 134.400 94.727,135.120 94.449,136.000 94.000 C 136.880 93.551,137.600 93.097,137.600 92.992 C 137.600 92.730,137.597 92.731,135.900 93.627 M285.200 93.725 C 285.200 93.824,285.861 94.409,286.668 95.025 C 287.476 95.641,288.011 95.941,287.856 95.691 C 287.540 95.179,285.200 93.447,285.200 93.725 M264.800 94.421 C 265.842 95.130,267.600 96.028,267.600 95.850 C 267.600 95.628,264.839 93.998,264.477 94.006 C 264.325 94.009,264.470 94.196,264.800 94.421 M131.900 95.829 C 130.405 96.640,130.496 96.978,132.000 96.200 C 132.660 95.859,133.200 95.494,133.200 95.390 C 133.200 95.132,133.157 95.147,131.900 95.829 M109.985 97.229 L 108.600 98.458 110.100 97.381 C 111.426 96.430,111.857 96.000,111.485 96.000 C 111.422 96.000,110.747 96.553,109.985 97.229 M268.000 96.179 C 268.000 96.289,268.540 96.659,269.200 97.000 C 269.860 97.341,270.400 97.531,270.400 97.421 C 270.400 97.311,269.860 96.941,269.200 96.600 C 268.540 96.259,268.000 96.069,268.000 96.179 M127.700 98.446 C 126.337 99.319,125.895 99.906,127.100 99.243 C 128.018 98.739,129.456 97.627,129.200 97.619 C 129.090 97.616,128.415 97.988,127.700 98.446 M105.290 101.020 C 103.689 102.439,102.519 103.595,102.690 103.589 C 102.860 103.583,104.260 102.420,105.800 101.005 C 109.432 97.667,109.060 97.678,105.290 101.020 M272.000 98.521 C 272.000 98.612,273.035 99.351,274.300 100.163 C 275.565 100.975,276.108 101.221,275.506 100.710 C 274.318 99.700,272.000 98.253,272.000 98.521 M295.988 102.682 C 297.865 104.486,299.522 105.971,299.670 105.982 C 299.819 105.992,298.829 104.970,297.470 103.712 C 293.305 99.855,292.379 99.211,295.988 102.682 M123.465 101.222 C 122.219 102.114,121.200 102.936,121.200 103.048 C 121.200 103.160,122.280 102.494,123.600 101.568 C 125.758 100.054,126.280 99.600,125.865 99.600 C 125.791 99.600,124.711 100.330,123.465 101.222 M278.000 102.525 C 278.000 102.624,278.661 103.209,279.468 103.825 C 280.276 104.441,280.811 104.741,280.656 104.491 C 280.340 103.979,278.000 102.247,278.000 102.525 M119.185 104.429 L 117.800 105.658 119.300 104.581 C 120.626 103.630,121.057 103.200,120.685 103.200 C 120.622 103.200,119.947 103.753,119.185 104.429 M98.400 107.400 C 96.983 108.830,95.998 109.979,96.212 109.953 C 96.597 109.907,101.495 104.800,101.155 104.800 C 101.057 104.800,99.817 105.970,98.400 107.400 M281.200 104.918 C 281.200 105.020,282.047 105.797,283.081 106.645 C 284.116 107.493,284.834 107.978,284.676 107.723 C 284.340 107.179,281.200 104.645,281.200 104.918 M111.063 111.009 C 109.778 112.214,108.884 113.200,109.077 113.200 C 109.270 113.200,110.405 112.210,111.600 111.000 C 114.391 108.173,114.081 108.179,111.063 111.009 M292.600 115.200 C 295.233 117.840,297.477 120.000,297.587 120.000 C 297.697 120.000,295.633 117.840,293.000 115.200 C 290.367 112.560,288.123 110.400,288.013 110.400 C 287.903 110.400,289.967 112.560,292.600 115.200 M304.000 110.525 C 304.000 110.594,304.585 111.179,305.300 111.825 L 306.600 113.000 305.425 111.700 C 304.330 110.488,304.000 110.216,304.000 110.525 M93.168 113.100 C 90.809 115.743,90.274 116.400,90.482 116.400 C 90.603 116.400,91.549 115.410,92.582 114.200 C 94.496 111.960,94.955 111.098,93.168 113.100 M306.400 113.325 C 306.400 113.394,306.985 113.979,307.700 114.625 L 309.000 115.800 307.825 114.500 C 306.730 113.288,306.400 113.016,306.400 113.325 M102.373 119.900 C 100.082 122.372,99.049 123.600,99.259 123.600 C 99.369 123.600,100.492 122.430,101.755 121.000 C 104.226 118.203,104.658 117.433,102.373 119.900 M312.800 121.200 C 313.270 121.860,313.744 122.400,313.854 122.400 C 313.964 122.400,313.670 121.860,313.200 121.200 C 312.730 120.540,312.256 120.000,312.146 120.000 C 312.036 120.000,312.330 120.540,312.800 121.200 M299.825 123.000 C 302.515 126.304,303.259 127.081,302.066 125.340 C 301.591 124.648,300.380 123.208,299.374 122.140 C 297.853 120.526,297.929 120.671,299.825 123.000 M84.800 123.800 C 84.119 124.790,83.652 125.600,83.762 125.600 C 83.872 125.600,84.519 124.790,85.200 123.800 C 85.881 122.810,86.348 122.000,86.238 122.000 C 86.128 122.000,85.481 122.810,84.800 123.800 M97.629 125.491 C 96.953 126.311,96.400 127.161,96.400 127.380 C 96.400 127.599,96.698 127.333,97.062 126.789 C 97.427 126.245,98.088 125.395,98.532 124.900 C 98.976 124.405,99.231 124.000,99.099 124.000 C 98.967 124.000,98.305 124.671,97.629 125.491 M82.321 127.500 C 80.179 130.760,79.915 131.200,80.101 131.200 C 80.276 131.200,80.841 130.395,82.978 127.100 C 83.371 126.495,83.605 126.000,83.499 126.000 C 83.393 126.000,82.863 126.675,82.321 127.500 M304.000 128.400 C 304.470 129.060,304.944 129.600,305.054 129.600 C 305.164 129.600,304.870 129.060,304.400 128.400 C 303.930 127.740,303.456 127.200,303.346 127.200 C 303.236 127.200,303.530 127.740,304.000 128.400 M94.400 129.800 C 93.719 130.790,93.252 131.600,93.362 131.600 C 93.472 131.600,94.119 130.790,94.800 129.800 C 95.481 128.810,95.948 128.000,95.838 128.000 C 95.728 128.000,95.081 128.810,94.400 129.800 M317.600 128.129 C 317.600 128.494,319.645 131.600,319.886 131.600 C 320.079 131.600,318.492 128.848,317.936 128.220 C 317.751 128.011,317.600 127.970,317.600 128.129 M92.246 133.000 C 91.891 133.550,91.309 134.495,90.953 135.100 L 90.305 136.200 91.110 135.226 C 92.060 134.076,93.321 132.000,93.069 132.000 C 92.971 132.000,92.601 132.450,92.246 133.000 M78.600 133.600 C 78.259 134.260,78.069 134.800,78.179 134.800 C 78.289 134.800,78.659 134.260,79.000 133.600 C 79.341 132.940,79.531 132.400,79.421 132.400 C 79.311 132.400,78.941 132.940,78.600 133.600 M323.484 138.586 C 324.297 140.228,325.027 141.507,325.106 141.427 C 325.285 141.249,322.465 135.600,322.198 135.600 C 322.093 135.600,322.671 136.944,323.484 138.586 M309.800 137.200 C 310.141 137.860,310.511 138.400,310.621 138.400 C 310.731 138.400,310.541 137.860,310.200 137.200 C 309.859 136.540,309.489 136.000,309.379 136.000 C 309.269 136.000,309.459 136.540,309.800 137.200 M88.568 139.018 C 87.982 140.018,87.570 140.904,87.653 140.986 C 87.735 141.068,88.297 140.250,88.901 139.168 C 90.283 136.693,90.005 136.567,88.568 139.018 M311.160 139.400 C 311.834 140.705,312.388 141.428,312.385 141.000 C 312.383 140.780,312.014 140.150,311.564 139.600 C 311.021 138.936,310.885 138.869,311.160 139.400 M86.600 142.800 C 86.259 143.460,86.069 144.000,86.179 144.000 C 86.289 144.000,86.659 143.460,87.000 142.800 C 87.341 142.140,87.531 141.600,87.421 141.600 C 87.311 141.600,86.941 142.140,86.600 142.800 M329.212 152.000 C 329.212 152.330,329.387 152.870,329.600 153.200 C 329.945 153.733,329.988 153.733,329.988 153.200 C 329.988 152.870,329.813 152.330,329.600 152.000 C 329.255 151.467,329.212 151.467,329.212 152.000 M79.800 159.200 C 79.650 159.673,79.617 160.150,79.727 160.260 C 79.837 160.370,80.050 160.073,80.200 159.600 C 80.350 159.127,80.383 158.650,80.273 158.540 C 80.163 158.430,79.950 158.727,79.800 159.200 M79.049 161.815 C 78.912 162.173,78.815 162.766,78.834 163.133 C 78.853 163.500,79.027 163.269,79.221 162.620 C 79.598 161.358,79.465 160.733,79.049 161.815 M320.456 162.000 C 320.456 162.330,320.611 162.960,320.800 163.400 C 321.017 163.904,321.144 163.978,321.144 163.600 C 321.144 163.270,320.989 162.640,320.800 162.200 C 320.583 161.696,320.456 161.622,320.456 162.000 M67.000 163.200 C 66.850 163.673,66.817 164.150,66.927 164.260 C 67.037 164.370,67.250 164.073,67.400 163.600 C 67.550 163.127,67.583 162.650,67.473 162.540 C 67.363 162.430,67.150 162.727,67.000 163.200 M332.434 163.400 C 332.422 163.840,332.587 164.470,332.800 164.800 C 333.314 165.595,333.314 164.596,332.800 163.400 L 332.456 162.600 332.434 163.400 M321.256 165.200 C 321.256 165.530,321.411 166.160,321.600 166.600 C 321.817 167.104,321.944 167.178,321.944 166.800 C 321.944 166.470,321.789 165.840,321.600 165.400 C 321.383 164.896,321.256 164.822,321.256 165.200 M66.229 167.029 C 66.081 167.615,66.051 168.184,66.161 168.294 C 66.271 168.404,66.481 168.015,66.629 167.429 C 66.776 166.842,66.806 166.273,66.696 166.163 C 66.586 166.053,66.376 166.442,66.229 167.029 M333.268 167.000 C 333.262 167.440,333.411 168.160,333.600 168.600 C 334.038 169.619,334.038 168.568,333.600 167.200 C 333.343 166.396,333.277 166.357,333.268 167.000 M77.450 168.850 C 77.117 170.517,77.440 170.840,77.800 169.200 C 77.952 168.509,77.993 167.859,77.891 167.758 C 77.789 167.656,77.591 168.147,77.450 168.850 M322.080 169.000 C 322.080 169.440,322.224 170.250,322.400 170.800 C 322.654 171.592,322.720 171.633,322.720 171.000 C 322.720 170.560,322.576 169.750,322.400 169.200 C 322.146 168.408,322.080 168.367,322.080 169.000 M65.654 170.800 C 65.619 171.350,65.496 172.250,65.383 172.800 L 65.177 173.800 65.607 172.815 C 65.843 172.274,65.965 171.374,65.878 170.815 L 65.720 169.800 65.654 170.800 M334.093 171.800 C 334.094 172.460,334.232 173.540,334.400 174.200 C 334.823 175.863,334.842 174.226,334.423 172.200 C 334.145 170.855,334.092 170.791,334.093 171.800 M64.635 178.635 C 64.483 180.316,64.441 181.774,64.542 181.876 C 64.643 181.977,64.855 180.688,65.012 179.012 C 65.169 177.336,65.211 175.877,65.105 175.771 C 64.999 175.666,64.788 176.954,64.635 178.635 M335.000 187.800 C 335.000 193.960,335.117 198.010,335.260 196.800 C 335.594 193.981,335.592 182.133,335.257 179.000 C 335.115 177.680,335.000 181.640,335.000 187.800 M76.101 179.400 C 76.105 180.280,76.187 180.593,76.283 180.095 C 76.379 179.598,76.375 178.878,76.275 178.495 C 76.175 178.113,76.096 178.520,76.101 179.400 M323.789 188.000 C 323.798 195.562,323.854 196.416,324.138 193.346 C 324.324 191.326,324.319 187.303,324.126 184.346 C 323.781 179.066,323.777 179.111,323.789 188.000 M75.671 187.600 C 75.676 191.230,75.805 195.190,75.958 196.400 C 76.112 197.610,76.170 194.820,76.087 190.200 C 76.005 185.580,75.875 181.620,75.800 181.400 C 75.725 181.180,75.667 183.970,75.671 187.600 M64.697 197.600 C 64.815 199.250,64.976 200.675,65.056 200.767 C 65.322 201.075,65.109 197.013,64.794 195.800 C 64.612 195.097,64.572 195.842,64.697 197.600 M323.018 201.018 C 322.865 202.039,322.822 202.955,322.922 203.055 C 323.022 203.155,323.229 202.402,323.382 201.382 C 323.535 200.361,323.578 199.445,323.478 199.345 C 323.378 199.245,323.171 199.998,323.018 201.018 M76.672 202.200 C 76.799 203.300,76.969 204.275,77.051 204.367 C 77.332 204.682,77.120 202.199,76.780 201.200 C 76.551 200.526,76.516 200.851,76.672 202.200 M334.269 202.356 C 334.121 203.095,334.020 204.083,334.044 204.550 C 334.068 205.018,334.247 204.590,334.442 203.600 C 334.637 202.610,334.738 201.623,334.667 201.406 C 334.596 201.190,334.417 201.617,334.269 202.356 M65.270 202.600 C 65.257 203.040,65.395 204.120,65.577 205.000 C 65.855 206.345,65.908 206.409,65.907 205.400 C 65.905 203.999,65.308 201.370,65.270 202.600 M322.256 205.684 C 322.121 206.188,322.027 206.960,322.046 207.400 C 322.065 207.840,322.245 207.498,322.446 206.640 C 322.836 204.978,322.670 204.140,322.256 205.684 M77.280 205.800 C 77.280 206.240,77.424 207.050,77.600 207.600 C 77.854 208.392,77.920 208.433,77.920 207.800 C 77.920 207.360,77.776 206.550,77.600 206.000 C 77.346 205.208,77.280 205.167,77.280 205.800 M333.400 208.000 C 333.248 208.691,333.207 209.341,333.309 209.442 C 333.411 209.544,333.609 209.053,333.750 208.350 C 333.891 207.647,333.931 206.998,333.841 206.908 C 333.750 206.817,333.552 207.309,333.400 208.000 M66.046 208.000 C 66.065 208.330,66.224 209.050,66.400 209.600 L 66.720 210.600 66.754 209.600 C 66.773 209.050,66.613 208.330,66.400 208.000 C 66.055 207.467,66.016 207.467,66.046 208.000 M321.429 209.829 C 321.281 210.415,321.238 210.972,321.332 211.066 C 321.427 211.160,321.624 210.758,321.771 210.171 C 321.919 209.585,321.962 209.028,321.868 208.934 C 321.773 208.840,321.576 209.242,321.429 209.829 M332.629 211.829 C 332.481 212.415,332.438 212.972,332.532 213.066 C 332.627 213.160,332.824 212.758,332.971 212.171 C 333.119 211.585,333.162 211.028,333.068 210.934 C 332.973 210.840,332.776 211.242,332.629 211.829 M66.856 212.000 C 66.856 212.330,67.011 212.960,67.200 213.400 C 67.417 213.904,67.544 213.978,67.544 213.600 C 67.544 213.270,67.389 212.640,67.200 212.200 C 66.983 211.696,66.856 211.622,66.856 212.000 M320.629 213.029 C 320.481 213.615,320.438 214.172,320.532 214.266 C 320.627 214.360,320.824 213.958,320.971 213.371 C 321.119 212.785,321.162 212.228,321.068 212.134 C 320.973 212.040,320.776 212.442,320.629 213.029 M331.829 215.029 C 331.681 215.615,331.638 216.172,331.732 216.266 C 331.827 216.360,332.024 215.958,332.171 215.371 C 332.319 214.785,332.362 214.228,332.268 214.134 C 332.173 214.040,331.976 214.442,331.829 215.029 M311.453 236.100 L 310.733 237.400 311.558 236.400 C 312.289 235.513,312.614 234.800,312.286 234.800 C 312.224 234.800,311.849 235.385,311.453 236.100 M88.415 236.600 C 88.417 236.820,88.786 237.450,89.236 238.000 C 89.779 238.664,89.915 238.731,89.640 238.200 C 88.966 236.895,88.412 236.172,88.415 236.600 M90.000 239.332 C 90.000 239.720,95.210 247.559,95.648 247.830 C 95.852 247.956,94.729 246.111,93.152 243.729 C 89.952 238.897,90.000 238.964,90.000 239.332 M79.200 243.400 C 79.926 244.720,80.702 245.980,80.925 246.200 C 81.148 246.420,80.741 245.520,80.021 244.200 C 79.301 242.880,78.525 241.620,78.296 241.400 C 78.067 241.180,78.474 242.080,79.200 243.400 M320.200 243.600 C 319.859 244.260,319.669 244.800,319.779 244.800 C 319.889 244.800,320.259 244.260,320.600 243.600 C 320.941 242.940,321.131 242.400,321.021 242.400 C 320.911 242.400,320.541 242.940,320.200 243.600 M306.096 244.832 C 305.380 245.915,304.877 246.800,304.978 246.800 C 305.250 246.800,307.700 243.167,307.538 243.004 C 307.461 242.927,306.812 243.750,306.096 244.832 M316.259 250.000 C 314.794 252.200,313.682 254.000,313.787 254.000 C 313.893 254.000,315.032 252.425,316.318 250.500 C 319.044 246.420,319.303 246.000,319.085 246.000 C 318.995 246.000,317.724 247.800,316.259 250.000 M303.944 247.900 C 302.793 249.289,302.306 250.000,302.504 250.000 C 302.614 250.000,303.186 249.370,303.773 248.600 C 304.863 247.171,304.995 246.632,303.944 247.900 M98.209 251.300 C 100.574 254.342,109.201 263.732,109.425 263.508 C 109.497 263.436,107.928 261.689,105.938 259.624 C 103.948 257.559,100.969 254.189,99.317 252.135 C 97.664 250.081,96.232 248.400,96.133 248.400 C 96.035 248.400,96.969 249.705,98.209 251.300 M300.149 252.684 C 299.077 253.940,298.409 254.839,298.664 254.683 C 299.223 254.339,302.554 250.400,302.286 250.400 C 302.182 250.400,301.220 251.428,300.149 252.684 M84.766 252.300 C 84.983 252.685,85.632 253.540,86.209 254.200 C 87.098 255.218,87.067 255.111,86.009 253.500 C 84.814 251.681,83.944 250.840,84.766 252.300 M312.744 255.100 C 311.593 256.489,311.106 257.200,311.304 257.200 C 311.414 257.200,311.986 256.570,312.573 255.800 C 313.663 254.371,313.795 253.832,312.744 255.100 M295.389 258.085 C 293.855 259.672,293.044 260.617,293.588 260.185 C 294.661 259.332,294.663 259.329,296.981 256.875 C 297.851 255.954,298.476 255.200,298.370 255.200 C 298.265 255.200,296.923 256.498,295.389 258.085 M291.660 261.842 C 291.362 262.178,291.199 262.532,291.295 262.629 C 291.392 262.726,291.798 262.444,292.198 262.002 C 292.597 261.561,292.761 261.207,292.562 261.215 C 292.363 261.224,291.957 261.505,291.660 261.842 M93.400 263.200 C 94.259 264.080,95.037 264.800,95.128 264.800 C 95.465 264.800,92.586 261.666,92.219 261.634 C 92.009 261.615,92.541 262.320,93.400 263.200 M304.815 264.541 L 303.029 266.600 305.115 264.615 C 306.262 263.523,307.200 262.578,307.200 262.515 C 307.200 262.051,306.338 262.783,304.815 264.541 M288.981 264.500 L 287.400 266.200 289.100 264.619 C 290.035 263.749,290.800 262.984,290.800 262.919 C 290.800 262.616,290.452 262.919,288.981 264.500 M110.000 263.725 C 110.000 263.794,110.585 264.379,111.300 265.025 L 112.600 266.200 111.425 264.900 C 110.330 263.688,110.000 263.416,110.000 263.725 M97.400 267.545 C 98.720 268.929,101.240 271.341,103.000 272.904 C 106.772 276.253,105.096 274.521,99.200 268.977 C 96.890 266.804,96.080 266.160,97.400 267.545 M284.600 268.271 C 283.500 269.284,282.960 269.867,283.400 269.567 C 284.683 268.692,287.231 266.399,286.901 266.415 C 286.736 266.424,285.700 267.259,284.600 268.271 M298.971 270.706 C 296.755 272.848,295.765 273.870,296.771 272.977 C 299.679 270.396,303.419 266.810,303.200 266.811 C 303.090 266.812,301.187 268.564,298.971 270.706 M116.800 270.337 C 116.800 270.523,117.184 271.019,117.653 271.438 C 118.122 271.857,119.472 273.638,120.653 275.396 C 121.834 277.154,122.800 278.450,122.800 278.274 C 122.800 277.784,119.631 273.182,118.135 271.499 C 117.401 270.673,116.800 270.150,116.800 270.337 M278.785 272.832 L 277.400 274.063 278.688 273.213 C 279.830 272.459,280.693 271.600,280.308 271.600 C 280.232 271.600,279.547 272.154,278.785 272.832 M275.681 274.972 C 273.823 276.285,273.562 276.661,275.131 275.762 C 275.863 275.343,276.650 274.775,276.880 274.500 C 277.471 273.793,277.193 273.902,275.681 274.972 M291.600 277.251 C 290.518 278.236,290.279 278.570,291.000 278.088 C 292.120 277.340,293.924 275.592,293.562 275.606 C 293.473 275.610,292.590 276.350,291.600 277.251 M108.849 278.606 C 109.426 279.263,110.461 280.592,111.149 281.560 C 111.837 282.528,112.400 283.182,112.400 283.014 C 112.400 282.528,109.764 279.066,108.734 278.199 C 107.937 277.528,107.954 277.588,108.849 278.606 M269.300 279.026 C 268.365 279.587,267.600 280.140,267.600 280.255 C 267.600 280.471,270.299 278.938,270.980 278.336 C 271.667 277.728,271.027 277.991,269.300 279.026 M123.478 280.195 C 123.844 280.962,124.214 281.519,124.301 281.432 C 124.484 281.249,123.270 278.800,122.996 278.800 C 122.895 278.800,123.112 279.428,123.478 280.195 M261.293 283.380 C 260.039 284.072,259.662 284.501,260.612 284.155 C 261.598 283.795,263.114 282.786,262.589 282.839 C 262.375 282.861,261.792 283.104,261.293 283.380 M281.681 284.572 C 279.823 285.885,279.562 286.261,281.131 285.362 C 281.863 284.943,282.650 284.375,282.880 284.100 C 283.471 283.393,283.193 283.502,281.681 284.572 M126.262 287.800 C 126.396 288.680,126.572 289.475,126.653 289.567 C 126.956 289.910,126.729 287.768,126.381 287.000 C 126.129 286.442,126.093 286.685,126.262 287.800 M274.400 289.233 L 273.400 290.048 274.700 289.414 C 275.415 289.065,276.000 288.694,276.000 288.590 C 276.000 288.192,275.363 288.448,274.400 289.233 M115.044 289.800 C 115.373 291.271,115.602 291.590,115.594 290.567 C 115.591 290.145,115.405 289.530,115.182 289.200 C 114.885 288.762,114.848 288.924,115.044 289.800 M271.900 290.629 C 270.405 291.440,270.496 291.778,272.000 291.000 C 272.660 290.659,273.200 290.294,273.200 290.190 C 273.200 289.932,273.157 289.947,271.900 290.629 M127.000 296.385 C 127.000 299.744,127.115 301.472,127.277 300.559 C 127.614 298.662,127.599 293.437,127.253 291.826 C 127.114 291.181,127.000 293.232,127.000 296.385 M115.743 296.200 C 115.739 299.556,115.786 299.855,116.031 298.060 C 116.191 296.883,116.193 295.083,116.035 294.060 C 115.812 292.621,115.746 293.106,115.743 296.200 M265.600 294.000 C 264.390 294.639,263.541 295.171,263.713 295.181 C 264.138 295.207,268.000 293.236,268.000 292.993 C 268.000 292.726,268.055 292.703,265.600 294.000 M229.200 294.800 C 228.396 295.057,228.357 295.123,229.000 295.132 C 229.440 295.138,230.160 294.989,230.600 294.800 C 231.619 294.362,230.568 294.362,229.200 294.800 M225.200 295.600 C 224.396 295.857,224.357 295.923,225.000 295.932 C 225.440 295.938,226.160 295.789,226.600 295.600 C 227.619 295.162,226.568 295.162,225.200 295.600 M220.200 296.400 C 219.122 296.674,219.102 296.706,220.000 296.713 C 220.550 296.717,221.450 296.576,222.000 296.400 C 223.344 295.969,221.892 295.969,220.200 296.400 M259.200 297.000 C 258.650 297.314,258.380 297.572,258.600 297.572 C 258.820 297.572,259.450 297.314,260.000 297.000 C 260.550 296.686,260.820 296.428,260.600 296.428 C 260.380 296.428,259.750 296.686,259.200 297.000 M213.400 297.200 C 212.039 297.444,211.979 297.492,213.000 297.520 C 213.660 297.539,214.920 297.405,215.800 297.223 C 217.893 296.790,215.802 296.770,213.400 297.200 M187.800 298.000 L 173.800 298.216 187.200 298.261 C 194.570 298.286,202.400 298.177,204.600 298.019 L 208.600 297.732 205.200 297.758 C 203.330 297.773,195.500 297.881,187.800 298.000 M115.050 302.450 C 114.717 304.117,115.040 304.440,115.400 302.800 C 115.552 302.109,115.593 301.459,115.491 301.358 C 115.389 301.256,115.191 301.747,115.050 302.450 M164.292 304.565 C 161.367 306.558,159.860 307.741,161.200 306.993 C 162.541 306.245,167.600 302.763,167.600 302.588 C 167.600 302.309,167.640 302.285,164.292 304.565 M126.250 304.450 C 125.917 306.117,126.240 306.440,126.600 304.800 C 126.752 304.109,126.793 303.459,126.691 303.358 C 126.589 303.256,126.391 303.747,126.250 304.450 M237.800 304.400 C 237.296 304.617,237.222 304.744,237.600 304.744 C 237.930 304.744,238.560 304.589,239.000 304.400 C 239.504 304.183,239.578 304.056,239.200 304.056 C 238.870 304.056,238.240 304.211,237.800 304.400 M231.000 306.000 C 229.981 306.438,231.032 306.438,232.400 306.000 C 233.204 305.743,233.243 305.677,232.600 305.668 C 232.160 305.662,231.440 305.811,231.000 306.000 M227.000 306.800 L 226.200 307.144 227.000 307.144 C 227.440 307.144,228.160 306.989,228.600 306.800 L 229.400 306.456 228.600 306.456 C 228.160 306.456,227.440 306.611,227.000 306.800 M222.000 307.600 C 220.656 308.031,222.108 308.031,223.800 307.600 C 224.878 307.326,224.898 307.294,224.000 307.287 C 223.450 307.283,222.550 307.424,222.000 307.600 M158.200 308.400 C 157.540 308.837,157.180 309.192,157.400 309.188 C 157.801 309.182,159.976 307.623,159.600 307.612 C 159.490 307.608,158.860 307.963,158.200 308.400 M215.800 308.420 C 215.011 308.635,215.422 308.670,217.000 308.523 C 218.320 308.400,219.475 308.232,219.567 308.150 C 219.864 307.882,217.034 308.085,215.800 308.420 M191.800 309.200 L 177.400 309.415 191.200 309.468 C 198.790 309.497,206.530 309.386,208.400 309.222 L 211.800 308.924 209.000 308.954 C 207.460 308.971,199.720 309.082,191.800 309.200 M155.500 309.829 C 154.895 310.157,154.400 310.510,154.400 310.613 C 154.400 310.999,155.032 310.757,156.000 310.000 C 157.189 309.070,157.011 309.009,155.500 309.829 M173.846 311.796 C 172.772 312.539,171.692 313.365,171.446 313.630 C 171.201 313.895,172.125 313.361,173.500 312.441 C 174.875 311.522,176.000 310.687,176.000 310.585 C 176.000 310.311,175.963 310.332,173.846 311.796 M123.067 314.467 C 122.705 315.388,122.474 316.207,122.554 316.288 C 122.634 316.368,123.000 315.683,123.367 314.767 C 123.733 313.850,123.964 313.031,123.879 312.946 C 123.794 312.861,123.429 313.545,123.067 314.467 M167.887 315.768 C 165.669 317.304,164.845 318.102,166.600 317.015 C 169.073 315.483,170.573 314.401,170.193 314.422 C 169.977 314.434,168.939 315.040,167.887 315.768 M109.053 317.300 L 108.333 318.600 109.158 317.600 C 109.889 316.713,110.214 316.000,109.886 316.000 C 109.824 316.000,109.449 316.585,109.053 317.300 M162.510 318.912 C 161.360 319.594,160.483 320.216,160.561 320.294 C 160.683 320.416,164.689 318.209,165.167 317.758 C 165.722 317.232,164.296 317.852,162.510 318.912 M129.200 320.000 C 128.396 320.257,128.357 320.323,129.000 320.332 C 129.440 320.338,130.160 320.189,130.600 320.000 C 131.619 319.562,130.568 319.562,129.200 320.000 M124.800 320.800 C 124.008 321.054,123.967 321.120,124.600 321.120 C 125.040 321.120,125.850 320.976,126.400 320.800 C 127.192 320.546,127.233 320.480,126.600 320.480 C 126.160 320.480,125.350 320.624,124.800 320.800 M105.414 323.035 C 105.041 323.604,104.805 324.138,104.889 324.222 C 104.973 324.307,105.358 323.841,105.744 323.188 C 106.606 321.728,106.348 321.609,105.414 323.035 M151.600 324.400 C 150.830 324.822,150.380 325.166,150.600 325.166 C 150.820 325.166,151.630 324.822,152.400 324.400 C 153.170 323.978,153.620 323.634,153.400 323.634 C 153.180 323.634,152.370 323.978,151.600 324.400 M104.267 325.067 C 103.220 326.113,104.332 330.324,106.045 331.801 C 106.814 332.464,106.787 332.373,105.886 331.269 C 104.591 329.683,104.263 328.556,104.468 326.404 C 104.552 325.522,104.601 324.800,104.577 324.800 C 104.553 324.800,104.413 324.920,104.267 325.067 M134.400 330.418 C 133.962 330.715,134.124 330.752,135.000 330.556 C 136.471 330.227,136.790 329.998,135.767 330.006 C 135.345 330.009,134.730 330.195,134.400 330.418 M131.000 331.200 C 129.981 331.638,131.032 331.638,132.400 331.200 C 133.204 330.943,133.243 330.877,132.600 330.868 C 132.160 330.862,131.440 331.011,131.000 331.200 M126.400 332.000 C 125.056 332.431,126.508 332.431,128.200 332.000 C 129.278 331.726,129.298 331.694,128.400 331.687 C 127.850 331.683,126.950 331.824,126.400 332.000 M108.000 332.805 C 108.330 333.016,109.125 333.191,109.767 333.194 C 111.314 333.202,110.977 332.971,109.000 332.668 C 107.910 332.501,107.591 332.545,108.000 332.805 M119.200 332.800 C 117.584 333.051,117.543 333.082,118.800 333.100 C 119.570 333.112,121.190 332.984,122.400 332.817 C 124.571 332.517,124.576 332.513,122.800 332.516 C 121.810 332.518,120.190 332.646,119.200 332.800 " stroke="none" fill="#747474" fill-rule="evenodd"></path><path id="path5" d="M197.717 66.697 C 199.211 66.774,201.551 66.774,202.917 66.696 C 204.282 66.618,203.060 66.555,200.200 66.555 C 197.340 66.556,196.222 66.620,197.717 66.697 M64.142 188.600 C 64.141 190.580,64.208 191.440,64.292 190.512 C 64.376 189.584,64.377 187.964,64.295 186.912 C 64.212 185.860,64.143 186.620,64.142 188.600 M323.742 189.000 C 323.741 190.980,323.808 191.840,323.892 190.912 C 323.976 189.984,323.977 188.364,323.895 187.312 C 323.812 186.260,323.743 187.020,323.742 189.000 " stroke="none" fill="#848484" fill-rule="evenodd"></path><path id="path6" d="M188.705 66.683 C 189.202 66.779,189.922 66.775,190.305 66.675 C 190.687 66.575,190.280 66.496,189.400 66.501 C 188.520 66.505,188.207 66.587,188.705 66.683 M195.900 78.682 C 196.395 78.778,197.205 78.778,197.700 78.682 C 198.195 78.587,197.790 78.509,196.800 78.509 C 195.810 78.509,195.405 78.587,195.900 78.682 M202.300 78.682 C 202.795 78.778,203.605 78.778,204.100 78.682 C 204.595 78.587,204.190 78.509,203.200 78.509 C 202.210 78.509,201.805 78.587,202.300 78.682 M300.400 106.200 C 301.146 106.970,301.847 107.600,301.957 107.600 C 302.067 107.600,301.546 106.970,300.800 106.200 C 300.054 105.430,299.353 104.800,299.243 104.800 C 299.133 104.800,299.654 105.430,300.400 106.200 M335.720 182.800 C 335.720 184.010,335.795 184.505,335.887 183.900 C 335.978 183.295,335.978 182.305,335.887 181.700 C 335.795 181.095,335.720 181.590,335.720 182.800 M335.714 194.200 C 335.717 195.300,335.795 195.703,335.887 195.095 C 335.979 194.486,335.977 193.586,335.882 193.095 C 335.787 192.603,335.711 193.100,335.714 194.200 M105.400 258.800 C 106.259 259.680,107.052 260.400,107.162 260.400 C 107.272 260.400,106.659 259.680,105.800 258.800 C 104.941 257.920,104.148 257.200,104.038 257.200 C 103.928 257.200,104.541 257.920,105.400 258.800 M304.175 266.100 L 303.000 267.400 304.300 266.225 C 305.015 265.579,305.600 264.994,305.600 264.925 C 305.600 264.616,305.270 264.888,304.175 266.100 M115.328 296.400 C 115.328 297.830,115.401 298.415,115.489 297.700 C 115.578 296.985,115.578 295.815,115.489 295.100 C 115.401 294.385,115.328 294.970,115.328 296.400 M203.100 309.889 C 203.815 309.978,204.985 309.978,205.700 309.889 C 206.415 309.801,205.830 309.728,204.400 309.728 C 202.970 309.728,202.385 309.801,203.100 309.889 " stroke="none" fill="#bcbcbc" fill-rule="evenodd"></path><path id="path7" d="M199.100 78.682 C 199.595 78.778,200.405 78.778,200.900 78.682 C 201.395 78.587,200.990 78.509,200.000 78.509 C 199.010 78.509,198.605 78.587,199.100 78.682 M127.714 297.800 C 127.717 298.900,127.795 299.303,127.887 298.695 C 127.979 298.086,127.977 297.186,127.882 296.695 C 127.787 296.203,127.711 296.700,127.714 297.800 M202.700 297.489 C 203.415 297.578,204.585 297.578,205.300 297.489 C 206.015 297.401,205.430 297.328,204.000 297.328 C 202.570 297.328,201.985 297.401,202.700 297.489 " stroke="none" fill="#c4c4c4" fill-rule="evenodd"></path><path id="path8" d="M197.500 66.296 C 198.875 66.374,201.125 66.374,202.500 66.296 C 203.875 66.218,202.750 66.154,200.000 66.154 C 197.250 66.154,196.125 66.218,197.500 66.296 M184.400 66.800 C 183.056 67.231,184.508 67.231,186.200 66.800 C 187.278 66.526,187.298 66.494,186.400 66.487 C 185.850 66.483,184.950 66.624,184.400 66.800 M213.800 66.800 C 214.460 66.968,215.450 67.105,216.000 67.105 C 216.892 67.105,216.870 67.072,215.800 66.800 C 215.140 66.632,214.150 66.495,213.600 66.495 C 212.708 66.495,212.730 66.528,213.800 66.800 M220.800 67.600 C 222.168 68.038,223.219 68.038,222.200 67.600 C 221.760 67.411,221.040 67.262,220.600 67.268 C 219.957 67.277,219.996 67.343,220.800 67.600 M172.800 68.418 C 172.362 68.715,172.524 68.752,173.400 68.556 C 174.871 68.227,175.190 67.998,174.167 68.006 C 173.745 68.009,173.130 68.195,172.800 68.418 M225.233 68.144 C 225.325 68.223,225.940 68.408,226.600 68.556 C 227.476 68.752,227.638 68.715,227.200 68.418 C 226.660 68.053,224.832 67.798,225.233 68.144 M195.500 79.099 C 197.975 79.169,202.025 79.169,204.500 79.099 C 206.975 79.028,204.950 78.971,200.000 78.971 C 195.050 78.971,193.025 79.028,195.500 79.099 M184.200 79.600 L 182.600 79.886 184.000 79.896 C 184.770 79.901,185.940 79.768,186.600 79.600 C 188.228 79.186,186.513 79.186,184.200 79.600 M213.800 79.600 C 214.460 79.768,215.540 79.906,216.200 79.907 C 217.209 79.908,217.145 79.855,215.800 79.577 C 213.774 79.158,212.137 79.177,213.800 79.600 M178.000 80.400 C 177.196 80.657,177.157 80.723,177.800 80.732 C 178.240 80.738,178.960 80.589,179.400 80.400 C 180.419 79.962,179.368 79.962,178.000 80.400 M173.400 81.200 C 172.896 81.417,172.822 81.544,173.200 81.544 C 173.530 81.544,174.160 81.389,174.600 81.200 C 175.104 80.983,175.178 80.856,174.800 80.856 C 174.470 80.856,173.840 81.011,173.400 81.200 M110.385 96.029 L 109.000 97.258 110.500 96.181 C 111.826 95.230,112.257 94.800,111.885 94.800 C 111.822 94.800,111.147 95.353,110.385 96.029 M291.600 97.725 C 291.600 97.794,292.185 98.379,292.900 99.025 L 294.200 100.200 293.025 98.900 C 291.930 97.688,291.600 97.416,291.600 97.725 M98.192 106.900 L 94.200 111.000 98.300 107.008 C 102.108 103.299,102.582 102.800,102.292 102.800 C 102.233 102.800,100.388 104.645,98.192 106.900 M302.200 107.600 C 303.728 109.140,305.069 110.400,305.179 110.400 C 305.289 110.400,304.128 109.140,302.600 107.600 C 301.072 106.060,299.731 104.800,299.621 104.800 C 299.511 104.800,300.672 106.060,302.200 107.600 M109.700 113.218 C 108.325 114.541,107.200 115.748,107.200 115.900 C 107.200 116.052,108.370 115.017,109.800 113.600 C 112.184 111.238,112.585 110.789,112.300 110.806 C 112.245 110.809,111.075 111.895,109.700 113.218 M292.400 115.800 C 294.260 117.670,295.872 119.200,295.982 119.200 C 296.092 119.200,294.660 117.670,292.800 115.800 C 290.940 113.930,289.328 112.400,289.218 112.400 C 289.108 112.400,290.540 113.930,292.400 115.800 M297.200 120.925 C 297.200 120.994,297.785 121.579,298.500 122.225 L 299.800 123.400 298.625 122.100 C 297.530 120.888,297.200 120.616,297.200 120.925 M302.000 126.800 C 302.470 127.460,302.944 128.000,303.054 128.000 C 303.164 128.000,302.870 127.460,302.400 126.800 C 301.930 126.140,301.456 125.600,301.346 125.600 C 301.236 125.600,301.530 126.140,302.000 126.800 M65.049 169.815 C 64.912 170.173,64.815 170.766,64.834 171.133 C 64.853 171.500,65.027 171.269,65.221 170.620 C 65.598 169.358,65.465 168.733,65.049 169.815 M77.850 170.450 C 77.517 172.117,77.840 172.440,78.200 170.800 C 78.352 170.109,78.393 169.459,78.291 169.358 C 78.189 169.256,77.991 169.747,77.850 170.450 M334.752 171.687 C 334.937 172.798,334.993 172.855,335.119 172.054 C 335.201 171.533,335.103 170.943,334.901 170.741 C 334.679 170.519,334.621 170.893,334.752 171.687 M64.249 175.415 C 64.112 175.773,64.021 176.546,64.046 177.133 C 64.080 177.932,64.170 177.798,64.404 176.600 C 64.735 174.900,64.662 174.340,64.249 175.415 M322.493 176.400 C 322.493 177.170,322.575 177.485,322.676 177.100 C 322.776 176.715,322.776 176.085,322.676 175.700 C 322.575 175.315,322.493 175.630,322.493 176.400 M335.450 178.000 C 335.775 180.241,336.002 180.560,335.994 178.767 C 335.991 178.015,335.808 177.130,335.588 176.800 C 335.309 176.381,335.267 176.742,335.450 178.000 M76.566 187.600 C 76.566 191.670,76.625 193.335,76.698 191.300 C 76.771 189.265,76.771 185.935,76.698 183.900 C 76.625 181.865,76.566 183.530,76.566 187.600 M323.358 187.800 C 323.358 190.880,323.421 192.087,323.497 190.482 C 323.573 188.878,323.573 186.358,323.496 184.882 C 323.419 183.407,323.357 184.720,323.358 187.800 M335.646 197.267 C 335.621 197.634,335.496 198.264,335.370 198.667 C 335.152 199.362,335.163 199.363,335.597 198.687 C 335.848 198.296,335.973 197.666,335.873 197.287 C 335.711 196.668,335.688 196.666,335.646 197.267 M64.006 199.033 C 64.009 199.675,64.196 200.470,64.421 200.800 C 64.714 201.230,64.754 200.946,64.562 199.800 C 64.230 197.816,63.998 197.496,64.006 199.033 M322.493 200.000 C 322.493 200.770,322.575 201.085,322.676 200.700 C 322.776 200.315,322.776 199.685,322.676 199.300 C 322.575 198.915,322.493 199.230,322.493 200.000 M64.834 205.400 C 64.822 205.840,64.987 206.470,65.200 206.800 C 65.714 207.595,65.714 206.596,65.200 205.400 L 64.856 204.600 64.834 205.400 M323.878 238.205 C 323.512 238.972,323.295 239.600,323.396 239.600 C 323.670 239.600,324.884 237.151,324.701 236.968 C 324.614 236.881,324.244 237.438,323.878 238.205 M303.600 247.200 C 303.130 247.860,302.836 248.400,302.946 248.400 C 303.056 248.400,303.530 247.860,304.000 247.200 C 304.470 246.540,304.764 246.000,304.654 246.000 C 304.544 246.000,304.070 246.540,303.600 247.200 M97.554 249.536 C 97.999 250.160,98.679 250.925,99.065 251.236 C 99.452 251.546,99.160 251.035,98.417 250.100 C 96.891 248.180,96.325 247.810,97.554 249.536 M307.000 263.200 C 306.368 263.860,306.019 264.390,306.225 264.378 C 306.578 264.357,308.639 262.000,308.305 262.000 C 308.220 262.000,307.632 262.540,307.000 263.200 M285.478 266.613 C 284.860 267.156,284.514 267.600,284.708 267.600 C 284.902 267.600,285.483 267.150,286.000 266.600 C 287.195 265.328,286.931 265.334,285.478 266.613 M115.800 268.400 C 116.883 269.500,117.860 270.400,117.970 270.400 C 118.080 270.400,117.283 269.500,116.200 268.400 C 115.117 267.300,114.140 266.400,114.030 266.400 C 113.920 266.400,114.717 267.300,115.800 268.400 M97.270 268.300 C 97.781 268.905,99.370 270.474,100.800 271.787 C 102.917 273.731,102.770 273.526,100.009 270.687 C 96.596 267.177,95.547 266.263,97.270 268.300 M300.386 270.300 L 298.200 272.600 300.500 270.414 C 302.637 268.382,302.983 268.000,302.686 268.000 C 302.624 268.000,301.589 269.035,300.386 270.300 M106.800 277.400 C 108.217 278.830,109.467 280.000,109.577 280.000 C 109.687 280.000,108.617 278.830,107.200 277.400 C 105.783 275.970,104.533 274.800,104.423 274.800 C 104.313 274.800,105.383 275.970,106.800 277.400 M127.482 290.821 C 127.608 291.799,127.775 292.675,127.855 292.767 C 128.181 293.142,127.960 290.155,127.621 289.621 C 127.384 289.246,127.335 289.670,127.482 290.821 M114.456 290.400 C 114.456 290.730,114.611 291.360,114.800 291.800 C 115.017 292.304,115.144 292.378,115.144 292.000 C 115.144 291.670,114.989 291.040,114.800 290.600 C 114.583 290.096,114.456 290.022,114.456 290.400 M223.800 295.200 C 223.296 295.417,223.222 295.544,223.600 295.544 C 223.930 295.544,224.560 295.389,225.000 295.200 C 225.504 294.983,225.578 294.856,225.200 294.856 C 224.870 294.856,224.240 295.011,223.800 295.200 M212.300 296.682 C 212.795 296.778,213.605 296.778,214.100 296.682 C 214.595 296.587,214.190 296.509,213.200 296.509 C 212.210 296.509,211.805 296.587,212.300 296.682 M180.674 297.499 C 184.455 297.565,190.755 297.565,194.674 297.499 C 198.593 297.434,195.500 297.380,187.800 297.380 C 180.100 297.380,176.893 297.434,180.674 297.499 M169.130 300.332 C 166.548 302.359,166.250 302.766,168.423 301.299 C 169.956 300.263,171.661 298.721,171.149 298.832 C 171.067 298.850,170.159 299.525,169.130 300.332 M127.693 300.800 C 127.693 301.570,127.775 301.885,127.876 301.500 C 127.976 301.115,127.976 300.485,127.876 300.100 C 127.775 299.715,127.693 300.030,127.693 300.800 M126.846 305.267 C 126.821 305.634,126.696 306.264,126.570 306.667 C 126.352 307.362,126.363 307.363,126.797 306.687 C 127.048 306.296,127.173 305.666,127.073 305.287 C 126.911 304.668,126.888 304.666,126.846 305.267 M224.000 308.000 L 223.000 308.320 224.076 308.360 C 224.668 308.382,225.264 308.220,225.400 308.000 C 225.681 307.545,225.420 307.545,224.000 308.000 M218.600 308.800 C 217.493 309.082,217.477 309.109,218.400 309.147 C 218.950 309.169,219.670 309.013,220.000 308.800 C 220.681 308.360,220.329 308.360,218.600 308.800 M210.000 309.600 L 208.200 309.880 210.000 309.912 C 210.990 309.929,212.160 309.789,212.600 309.600 L 213.400 309.256 212.600 309.288 C 212.160 309.306,210.990 309.446,210.000 309.600 M122.480 317.420 C 121.776 318.848,121.200 320.232,121.200 320.496 C 121.200 320.761,121.835 319.652,122.611 318.033 C 123.387 316.414,123.963 315.030,123.891 314.957 C 123.818 314.885,123.183 315.993,122.480 317.420 M127.800 319.600 C 127.296 319.817,127.222 319.944,127.600 319.944 C 127.930 319.944,128.560 319.789,129.000 319.600 C 129.504 319.383,129.578 319.256,129.200 319.256 C 128.870 319.256,128.240 319.411,127.800 319.600 M123.000 320.400 C 121.981 320.838,123.032 320.838,124.400 320.400 C 125.204 320.143,125.243 320.077,124.600 320.068 C 124.160 320.062,123.440 320.211,123.000 320.400 M104.314 330.604 C 104.541 331.047,105.148 331.766,105.663 332.202 C 106.567 332.966,106.565 332.952,105.606 331.797 C 104.013 329.879,103.879 329.755,104.314 330.604 " stroke="none" fill="#d0d0d0" fill-rule="evenodd"></path></g></svg>